<svg width="131" height="42" viewBox="0 0 131 42" fill="none" xmlns="http://www.w3.org/2000/svg">
<path d="M37.669 29.7739C37.4631 29.2762 37.2701 28.7529 37.0642 28.3062L36.1118 26.175L36.0732 26.1367C33.2419 20.0108 30.2176 13.7828 27.0131 7.65691L26.8844 7.40167C26.5627 6.80184 26.2409 6.13821 25.9063 5.52562C25.4945 4.79817 25.0955 4.01967 24.4392 3.27946C23.7994 2.50496 22.9942 1.88096 22.0818 1.45248C21.1693 1.02401 20.1723 0.801758 19.1627 0.801758C18.1531 0.801758 17.1561 1.02401 16.2436 1.45248C15.3312 1.88096 14.526 2.50496 13.8862 3.27946C13.2813 4.01967 12.8309 4.79817 12.4191 5.52562C12.0973 6.18925 11.7756 6.84013 11.441 7.43996L11.3123 7.6952C8.15927 13.8211 5.08346 20.0491 2.25217 26.175L2.17495 26.2515C1.89183 26.9152 1.55722 27.6043 1.23548 28.3445C1.02957 28.7912 0.823657 29.2762 0.617745 29.8122C0.0618239 31.2158 -0.115699 32.7388 0.102671 34.2311C0.321042 35.7234 0.927768 37.1336 1.86305 38.3226C2.79834 39.5116 4.02991 40.4384 5.43638 41.0116C6.84284 41.5849 8.37567 41.7848 9.88379 41.5918C11.3296 41.403 12.7219 40.9254 13.9763 40.1879C15.6493 39.2563 17.258 37.9035 19.0597 35.9508C20.8615 37.9035 22.5088 39.2563 24.1432 40.2007C25.715 41.1155 27.4949 41.6205 29.3167 41.6683C31.4265 41.677 33.4682 40.9285 35.0649 39.5609C36.6616 38.1934 37.7054 36.2991 38.0037 34.2279C38.3484 32.7396 38.2317 31.1827 37.669 29.7611V29.7739ZM19.1884 31.8924C16.9749 29.0847 15.5335 26.5068 15.0445 24.2989C14.8418 23.4808 14.7982 22.6318 14.9158 21.7975C15.0059 21.1466 15.2504 20.5723 15.585 20.0874C16.3571 18.977 17.7084 18.2879 19.1884 18.2879C19.8913 18.2666 20.5885 18.4187 21.2174 18.7305C21.8464 19.0424 22.3874 19.5042 22.7919 20.0746C23.1265 20.5851 23.371 21.1466 23.4482 21.7975C23.5769 22.5377 23.5255 23.3928 23.3196 24.2989C22.8305 26.4685 21.3891 29.072 19.1884 31.8924ZM35.5842 33.7813C35.438 34.8328 35.0164 35.828 34.3616 36.6677C33.7068 37.5074 32.8415 38.1623 31.852 38.5671C30.874 38.9755 29.7929 39.0904 28.7376 38.9755C27.7081 38.8479 26.6785 38.5161 25.6232 37.9035C23.871 36.8295 22.2955 35.4952 20.9516 33.9472C23.6542 30.629 25.2886 27.6043 25.9063 24.9115C26.2023 23.6353 26.2409 22.4867 26.1122 21.4274C25.9515 20.4234 25.574 19.4656 25.0055 18.6197C24.3563 17.7024 23.4899 16.9573 22.4823 16.45C21.4747 15.9426 20.3569 15.6884 19.227 15.7099C16.8462 15.7099 14.7227 16.8075 13.4358 18.6069C12.8564 19.4507 12.482 20.4161 12.3419 21.4274C12.1746 22.4994 12.2132 23.6863 12.5478 24.9115C13.1655 27.6043 14.8385 30.6673 17.5025 33.9727C16.1815 35.5503 14.6022 36.8964 12.8309 37.9545C11.7627 38.5671 10.746 38.8862 9.71648 39.0138C8.11537 39.2172 6.49801 38.7856 5.21597 37.813C3.93392 36.8404 3.09082 35.4052 2.86991 33.8195C2.74121 32.7986 2.8313 31.7776 3.24312 30.629C3.37182 30.2206 3.56486 29.8122 3.77077 29.3272C4.0539 28.6636 4.38851 27.9744 4.71025 27.2853L4.76172 27.1959C7.54154 21.1083 10.5787 14.8931 13.7318 8.80552L13.8605 8.55027C14.1822 7.93768 14.5039 7.28681 14.8385 6.67422C15.1732 6.02334 15.5335 5.39799 15.9968 4.8875C16.3978 4.41277 16.8989 4.03099 17.4648 3.76904C18.0307 3.50709 18.6476 3.37133 19.2721 3.37133C19.8966 3.37133 20.5135 3.50709 21.0794 3.76904C21.6453 4.03099 22.1464 4.41277 22.5474 4.8875C22.9978 5.39799 23.371 6.02334 23.7056 6.67422C24.0274 7.28681 24.3491 7.95045 24.6837 8.55027L24.8124 8.80552C27.9526 14.8931 30.9898 21.1083 33.8211 27.1959L33.8597 27.2342C34.1943 27.8979 34.4774 28.6381 34.7992 29.2762C35.0051 29.7739 35.211 30.1695 35.3397 30.5907C35.5842 31.7393 35.7129 32.7603 35.5842 33.7813ZM53.4985 31.6117C52.5288 31.6257 51.5683 31.4231 50.6882 31.0188C49.8082 30.6145 49.0313 30.0189 48.4151 29.2762C47.0304 27.6936 46.2955 25.6531 46.356 23.5587C46.3348 21.4187 47.0934 19.3431 48.4923 17.7136C49.1394 16.9614 49.9449 16.359 50.8521 15.9489C51.7593 15.5388 52.7461 15.3309 53.7431 15.3398C54.6812 15.3143 55.6104 15.5259 56.4434 15.9545C57.2763 16.3832 57.9857 17.0148 58.5048 17.7901L58.6335 15.7865H62.3914V31.2033H58.6206L58.4919 28.9571C57.9567 29.785 57.2171 30.4634 56.3431 30.928C55.4692 31.3926 54.49 31.6279 53.4985 31.6117ZM54.4766 27.9361C55.223 27.9361 55.8794 27.7319 56.4971 27.3618C57.0634 26.9534 57.5267 26.4174 57.887 25.7666C58.2088 25.1157 58.3761 24.3372 58.3761 23.4694C58.4263 22.7156 58.2783 21.9619 57.9467 21.2818C57.6151 20.6018 57.1112 20.0187 56.4843 19.5896C55.8819 19.2174 55.1864 19.0201 54.4766 19.0201C53.7669 19.0201 53.0714 19.2174 52.469 19.5896C51.9027 19.998 51.4394 20.534 51.0791 21.1849C50.7387 21.9027 50.5713 22.6891 50.59 23.4821C50.5399 24.2359 50.6878 24.9896 51.0194 25.6697C51.351 26.3497 51.8549 26.9328 52.4818 27.3618C53.0867 27.7319 53.7431 27.9361 54.4766 27.9361ZM68.8261 11.626C68.8261 12.0727 68.7489 12.481 68.543 12.8129C68.3371 13.1319 68.0539 13.4255 67.6807 13.6297C67.3075 13.8338 66.9086 13.9104 66.4967 13.9104C66.0849 13.9104 65.6731 13.8338 65.2999 13.6297C64.9469 13.4348 64.6501 13.1536 64.4376 12.8129C64.2383 12.4493 64.1406 12.0396 64.1545 11.626C64.1545 11.1665 64.2446 10.7581 64.4376 10.4391C64.6435 10.0562 64.9395 9.8265 65.2999 9.6223C65.6731 9.41811 66.072 9.32877 66.4967 9.32877C66.9064 9.31941 67.3115 9.41562 67.6724 9.608C68.0333 9.80038 68.3377 10.0823 68.5559 10.4263C68.7431 10.7984 68.8359 11.2102 68.8261 11.626ZM64.4505 31.1522V15.7609H68.543V31.1778H64.4376L64.4505 31.1522ZM79.4821 19.7938V19.8449C79.289 19.7555 79.0316 19.7172 78.8386 19.679C78.5812 19.6279 78.3753 19.6279 78.1308 19.6279C76.9854 19.6279 76.1231 19.9597 75.5569 20.6489C74.9391 21.3508 74.656 22.3335 74.656 23.597V31.165H70.5506V15.7482H74.3214L74.4501 18.0837C74.8619 17.2669 75.351 16.6543 76.0459 16.1949C76.7372 15.7485 77.551 15.5255 78.3753 15.5568C78.6713 15.5568 78.9544 15.5823 79.1989 15.6333C79.3276 15.6716 79.4049 15.6716 79.4821 15.7099V19.7938ZM81.1294 31.1522V9.43087H85.2219V17.7263C85.801 16.9861 86.4573 16.4118 87.281 15.9651C88.5849 15.3312 90.0662 15.1513 91.4859 15.4546C92.9055 15.758 94.1807 16.5268 95.1057 17.637C96.4934 19.2228 97.2285 21.2685 97.1648 23.3673C97.186 25.5072 96.4273 27.5828 95.0284 29.2124C94.3814 29.9646 93.5759 30.5669 92.6687 30.977C91.7615 31.3872 90.7747 31.5951 89.7777 31.5861C88.8396 31.6116 87.9104 31.4001 87.0774 30.9714C86.2444 30.5428 85.535 29.9111 85.016 29.1358L84.8873 31.1395L81.1294 31.1778V31.1522ZM89.0441 27.9361C89.7777 27.9361 90.434 27.7319 91.0518 27.3618C91.618 26.9534 92.0813 26.4174 92.4417 25.7666C92.7763 25.1157 92.9307 24.3372 92.9307 23.4694C92.9307 22.6143 92.7763 21.8358 92.4417 21.1849C92.1037 20.5573 91.6289 20.0123 91.0518 19.5896C90.4494 19.2174 89.7539 19.0201 89.0441 19.0201C88.3344 19.0201 87.6388 19.2174 87.0365 19.5896C86.4573 19.998 86.0069 20.534 85.6337 21.1849C85.2934 21.9027 85.1259 22.6891 85.1447 23.4821C85.0945 24.2359 85.2424 24.9896 85.574 25.6697C85.9056 26.3497 86.4095 26.9328 87.0365 27.3618C87.6413 27.7319 88.2977 27.9361 89.0441 27.9361ZM98.7091 31.165V15.7482H102.48L102.609 17.7519C103.082 16.9838 103.755 16.3552 104.556 15.9312C105.357 15.5071 106.257 15.3029 107.164 15.3398C108.202 15.322 109.221 15.608 110.096 16.1618C110.97 16.7157 111.661 17.5129 112.081 18.4538C112.531 19.4237 112.775 20.6234 112.775 21.9634V31.2033H108.67V22.4994C108.67 21.4274 108.426 20.5851 107.937 19.9597C107.448 19.3471 106.778 19.0153 105.929 19.0153C105.311 19.0153 104.771 19.1429 104.294 19.4237C103.844 19.7172 103.471 20.0874 103.188 20.6106C102.901 21.1395 102.759 21.7334 102.776 22.3335V31.165H98.7091ZM114.822 31.165V9.41811H118.927V17.7136C119.483 16.9692 120.207 16.3637 121.04 15.945C121.873 15.5263 122.793 15.306 123.727 15.3015C124.697 15.2874 125.658 15.4901 126.538 15.8944C127.418 16.2987 128.195 16.8943 128.811 17.637C130.189 19.2227 130.919 21.2622 130.857 23.3545C130.879 25.4946 130.121 27.5706 128.721 29.1996C128.074 29.9518 127.268 30.5542 126.361 30.9643C125.454 31.3744 124.467 31.5823 123.47 31.5734C122.532 31.5988 121.603 31.3873 120.77 30.9587C119.937 30.53 119.227 29.8983 118.708 29.123L118.592 31.1267L114.822 31.165ZM122.775 27.9361C123.522 27.9361 124.178 27.7319 124.783 27.3618C125.362 26.9534 125.812 26.4174 126.186 25.7666C126.507 25.1157 126.675 24.3372 126.675 23.4694C126.725 22.7156 126.577 21.9619 126.245 21.2818C125.914 20.6018 125.41 20.0187 124.783 19.5896C124.18 19.2174 123.485 19.0201 122.775 19.0201C122.065 19.0201 121.37 19.2174 120.767 19.5896C120.201 19.998 119.738 20.534 119.378 21.1849C119.018 21.8963 118.85 22.6874 118.888 23.4821C118.838 24.2359 118.986 24.9896 119.318 25.6697C119.649 26.3497 120.153 26.9328 120.78 27.3618C121.385 27.7319 122.003 27.9361 122.775 27.9361Z" fill="#FF385C"/>
</svg>
