<svg width="1393" height="366" viewBox="0 0 1393 366" fill="none" xmlns="http://www.w3.org/2000/svg">
<path d="M125.462 277L31 182.5L125.462 88L220 182.5L125.462 277Z" fill="url(#paint0_linear_245_1936)"/>
<path d="M392.95 237H337.347V91.2828H391.672C406.016 91.2828 417.307 95.0465 425.545 102.574C433.782 109.959 437.901 119.262 437.901 130.482C437.901 137.441 436.054 143.69 432.362 149.229C428.811 154.626 424.053 158.318 418.088 160.307C425.616 161.869 431.936 165.633 437.049 171.598C442.162 177.279 444.718 184.238 444.718 192.475C444.718 206.394 440.315 217.33 431.51 225.283C422.704 233.094 409.851 237 392.95 237ZM365.894 114.93V151.785H389.967C402.608 151.785 408.928 145.11 408.928 131.76C408.928 126.647 407.223 122.599 403.815 119.617C400.406 116.492 395.719 114.93 389.754 114.93H365.894ZM365.894 173.302V213.566H390.394C399.341 213.566 405.732 211.862 409.567 208.453C413.544 205.044 415.532 199.506 415.532 191.836C415.532 186.013 413.544 181.468 409.567 178.202C405.732 174.935 400.193 173.302 392.95 173.302H365.894ZM560.244 237H467.999V91.2828H496.759V213.779H560.244V237ZM572.099 165.207C572.099 140.92 576.786 122.315 586.159 109.391C595.533 96.4667 609.522 90.0046 628.128 90.0046C646.875 90.0046 660.864 96.4667 670.096 109.391C679.47 122.173 684.156 140.778 684.156 165.207C684.156 188.357 679.399 206.394 669.883 219.318C660.509 232.1 646.591 238.491 628.128 238.491C609.664 238.491 595.675 232.1 586.159 219.318C576.786 206.394 572.099 188.357 572.099 165.207ZM628.128 215.909C638.069 215.909 645.242 211.72 649.644 203.34C654.189 194.961 656.462 182.25 656.462 165.207C656.462 147.027 654.189 133.748 649.644 125.369C645.242 116.847 638.069 112.586 628.128 112.586C618.186 112.586 610.943 116.847 606.398 125.369C601.995 133.748 599.794 147.027 599.794 165.207C599.794 182.25 602.066 194.961 606.611 203.34C611.156 211.72 618.328 215.909 628.128 215.909ZM763.303 238.917C743.135 238.917 727.513 232.313 716.435 219.105C705.357 205.897 699.818 186.652 699.818 161.372C699.818 138.222 705.57 120.327 717.074 107.687C728.72 95.1885 744.13 88.9394 763.303 88.9394C779.92 88.9394 793.412 93.7682 803.78 103.426C814.006 112.942 819.119 125.653 819.119 141.559H791.85C790.856 122.244 781.34 112.586 763.303 112.586C752.367 112.586 743.917 116.634 737.952 124.73C732.129 132.825 729.217 145.039 729.217 161.372C729.217 179.267 732.129 192.759 737.952 201.849C743.917 210.796 752.367 215.27 763.303 215.27C781.34 215.27 790.856 205.826 791.85 186.936H819.119C819.119 202.701 813.935 215.341 803.567 224.857C793.341 234.231 779.92 238.917 763.303 238.917ZM952.455 91.2828L900.474 162.224L954.159 237H923.056L879.17 176.284L869.157 179.693V237H840.397V91.2828H869.157V155.194L875.548 153.063L920.286 91.2828H952.455ZM1013.7 237H1001.77V101.722H958.733V91.2828H1056.73V101.722H1013.7V237ZM1166.61 237H1153.41L1140.2 197.801H1077.14L1063.93 237H1050.72L1101.21 91.2828H1116.13L1166.61 237ZM1108.67 104.491L1080.76 187.149H1136.58L1108.67 104.491ZM1268.21 237H1188.53V91.2828H1200.46V226.561H1268.21V237ZM1385.11 91.2828L1327.16 163.715L1386.17 237H1371.69L1316.72 169.467L1300.32 173.089V237H1288.39V91.2828H1300.32V161.159L1316.72 157.75L1370.62 91.2828H1385.11Z" fill="white"/>
<defs>
<linearGradient id="paint0_linear_245_1936" x1="31" y1="182.5" x2="220" y2="182.5" gradientUnits="userSpaceOnUse">
<stop stop-color="#1E9CD7"/>
<stop offset="5.32779e-09" stop-color="#17D3F3"/>
<stop offset="0.9944" stop-color="#2BC0D9"/>
</linearGradient>
</defs>
</svg>
