<svg width="1284" height="241" viewBox="0 0 1284 241" fill="none" xmlns="http://www.w3.org/2000/svg">
<path d="M90.9768 178L34 121L90.9768 64L148 121L90.9768 178Z" fill="url(#paint0_linear_245_1936)"/>
<path d="M284.45 189H228.847V43.2828H283.172C297.516 43.2828 308.807 47.0465 317.045 54.5737C325.282 61.959 329.401 71.2616 329.401 82.4816C329.401 89.4408 327.554 95.6899 323.862 101.229C320.311 106.626 315.553 110.318 309.588 112.307C317.116 113.869 323.436 117.633 328.549 123.598C333.662 129.279 336.218 136.238 336.218 144.475C336.218 158.394 331.815 169.33 323.01 177.283C314.204 185.094 301.351 189 284.45 189ZM257.394 66.9299V103.785H281.467C294.108 103.785 300.428 97.1101 300.428 83.7598C300.428 78.6469 298.723 74.5992 295.315 71.6167C291.906 68.4922 287.219 66.9299 281.254 66.9299H257.394ZM257.394 125.302V165.566H281.894C290.841 165.566 297.232 163.862 301.067 160.453C305.044 157.044 307.032 151.506 307.032 143.836C307.032 138.013 305.044 133.468 301.067 130.202C297.232 126.935 291.693 125.302 284.45 125.302H257.394ZM451.744 189H359.499V43.2828H388.259V165.779H451.744V189ZM463.599 117.207C463.599 92.9204 468.286 74.3152 477.659 61.3909C487.033 48.4667 501.022 42.0046 519.628 42.0046C538.375 42.0046 552.364 48.4667 561.596 61.3909C570.97 74.1731 575.656 92.7784 575.656 117.207C575.656 140.357 570.899 158.394 561.383 171.318C552.009 184.1 538.091 190.491 519.628 190.491C501.164 190.491 487.175 184.1 477.659 171.318C468.286 158.394 463.599 140.357 463.599 117.207ZM519.628 167.909C529.569 167.909 536.742 163.72 541.144 155.34C545.689 146.961 547.962 134.25 547.962 117.207C547.962 99.0274 545.689 85.7481 541.144 77.3687C536.742 68.8472 529.569 64.5865 519.628 64.5865C509.686 64.5865 502.443 68.8472 497.898 77.3687C493.495 85.7481 491.294 99.0274 491.294 117.207C491.294 134.25 493.566 146.961 498.111 155.34C502.656 163.72 509.828 167.909 519.628 167.909ZM654.803 190.917C634.635 190.917 619.013 184.313 607.935 171.105C596.857 157.897 591.318 138.652 591.318 113.372C591.318 90.2219 597.07 72.3268 608.574 59.6866C620.22 47.1885 635.63 40.9394 654.803 40.9394C671.42 40.9394 684.912 45.7682 695.28 55.4259C705.506 64.9415 710.619 77.6527 710.619 93.5595H683.35C682.356 74.2442 672.84 64.5865 654.803 64.5865C643.867 64.5865 635.417 68.6342 629.452 76.7296C623.629 84.825 620.717 97.0391 620.717 113.372C620.717 131.267 623.629 144.759 629.452 153.849C635.417 162.796 643.867 167.27 654.803 167.27C672.84 167.27 682.356 157.826 683.35 138.936H710.619C710.619 154.701 705.435 167.341 695.067 176.857C684.841 186.231 671.42 190.917 654.803 190.917ZM843.955 43.2828L791.974 114.224L845.659 189H814.556L770.67 128.284L760.657 131.693V189H731.897V43.2828H760.657V107.194L767.048 105.063L811.786 43.2828H843.955ZM905.196 189H893.266V53.7216H850.233V43.2828H948.23V53.7216H905.196V189ZM1058.11 189H1044.91L1031.7 149.801H968.639L955.431 189H942.223L992.713 43.2828H1007.63L1058.11 189ZM1000.17 56.4911L972.261 139.149H1028.08L1000.17 56.4911ZM1159.71 189H1080.03V43.2828H1091.96V178.561H1159.71V189ZM1276.61 43.2828L1218.66 115.715L1277.67 189H1263.19L1208.22 121.467L1191.82 125.089V189H1179.89V43.2828H1191.82V113.159L1208.22 109.75L1262.12 43.2828H1276.61Z" fill="white"/>
<defs>
<linearGradient id="paint0_linear_245_1936" x1="34" y1="121" x2="148" y2="121" gradientUnits="userSpaceOnUse">
<stop stop-color="#1E9CD7"/>
<stop offset="5.32779e-09" stop-color="#17D3F3"/>
<stop offset="0.9944" stop-color="#2BC0D9"/>
</linearGradient>
</defs>
</svg>
