<svg xmlns="http://www.w3.org/2000/svg" xmlns:xlink="http://www.w3.org/1999/xlink" width="298.87" height="40.784" viewBox="0 0 298.87 40.784">
  <defs>
    <clipPath id="clip-path">
      <path id="Path_5736" data-name="Path 5736" d="M0,0H247.3V-14.48H0Z" fill="none"/>
    </clipPath>
    <clipPath id="clip-path-2">
      <path id="Path_5738" data-name="Path 5738" d="M0-6.585H44V-47.369H0Z" transform="translate(0 47.369)" fill="none"/>
    </clipPath>
  </defs>
  <g id="CTF_logo_white" data-name="CTF logo_white" transform="translate(-61 -33.326)">
    <g id="Group_6471" data-name="Group 6471" transform="translate(112.573 52.96)" clip-path="url(#clip-path)">
      <g id="Group_6469" data-name="Group 6469" transform="translate(190.898 -0.24)">
        <path id="Path_5734" data-name="Path 5734" d="M0,0H1.58V-6.1H9.16V-7.54H1.58v-5h8.48V-14H0ZM21.11-.17a4.919,4.919,0,0,0,1.84-1.17,5.275,5.275,0,0,0,1.19-1.94,7.917,7.917,0,0,0,.42-2.7V-14H22.98v8.14A4.747,4.747,0,0,1,21.84-2.4a4.123,4.123,0,0,1-3.08,1.16,4.088,4.088,0,0,1-3.14-1.22,4.938,4.938,0,0,1-1.14-3.5V-14H12.9v8.14a7.552,7.552,0,0,0,.42,2.62,5.185,5.185,0,0,0,1.19,1.91A4.969,4.969,0,0,0,16.35-.17a6.875,6.875,0,0,0,2.37.39,6.942,6.942,0,0,0,2.39-.39M28.3,0h1.54V-11.48L38.88,0h1.26V-14H38.6V-2.78L29.78-14H28.3ZM44.1,0h4.86a8.136,8.136,0,0,0,3.01-.54,7.227,7.227,0,0,0,2.36-1.48,6.527,6.527,0,0,0,1.53-2.22A7.025,7.025,0,0,0,56.4-7v-.04a6.954,6.954,0,0,0-.54-2.75A6.546,6.546,0,0,0,54.329-12a7.09,7.09,0,0,0-2.36-1.47,8.279,8.279,0,0,0-3.01-.53H44.1Zm4.86-12.54a6.429,6.429,0,0,1,2.4.43,5.352,5.352,0,0,1,1.83,1.18,5.255,5.255,0,0,1,1.16,1.76A5.7,5.7,0,0,1,54.759-7v.04a5.7,5.7,0,0,1-.41,2.17,5.144,5.144,0,0,1-1.16,1.75,5.309,5.309,0,0,1-1.83,1.16,6.572,6.572,0,0,1-2.4.42h-3.28V-12.54Z" fill="#00b8f1"/>
      </g>
      <g id="Group_6470" data-name="Group 6470" transform="translate(9.02 -0.17)">
        <path id="Path_5735" data-name="Path 5735" d="M0,0A6.562,6.562,0,0,0,1.51-.5a6.653,6.653,0,0,0,1.27-.79A10.125,10.125,0,0,0,3.9-2.33L1.94-4.31A7.875,7.875,0,0,1,.29-3.11a4.293,4.293,0,0,1-2.03.44,3.858,3.858,0,0,1-1.65-.35,3.861,3.861,0,0,1-1.28-.95,4.464,4.464,0,0,1-.83-1.4,4.8,4.8,0,0,1-.3-1.7v-.04A4.722,4.722,0,0,1-5.5-8.8a4.377,4.377,0,0,1,.84-1.39,3.862,3.862,0,0,1,1.29-.94,3.9,3.9,0,0,1,1.63-.34,4.253,4.253,0,0,1,1.91.42A7.42,7.42,0,0,1,1.84-9.89L3.8-12.15a8.3,8.3,0,0,0-1.04-.88,6.363,6.363,0,0,0-1.22-.68,7.463,7.463,0,0,0-1.47-.44,9.235,9.235,0,0,0-1.79-.16,7.485,7.485,0,0,0-2.96.57,6.957,6.957,0,0,0-2.3,1.56,7.228,7.228,0,0,0-1.5,2.3,7.3,7.3,0,0,0-.54,2.81v.04a7.375,7.375,0,0,0,.54,2.82,6.97,6.97,0,0,0,1.5,2.29A7.023,7.023,0,0,0-4.7-.39,7.252,7.252,0,0,0-1.84.17,9.124,9.124,0,0,0,0,0M16.15-.4a7.219,7.219,0,0,0,2.36-1.56,7.265,7.265,0,0,0,1.55-2.3,7.078,7.078,0,0,0,.56-2.81v-.04a7.2,7.2,0,0,0-.55-2.81,6.9,6.9,0,0,0-1.54-2.28,7.412,7.412,0,0,0-2.35-1.54,7.634,7.634,0,0,0-2.98-.57,7.706,7.706,0,0,0-2.99.57,7.208,7.208,0,0,0-2.36,1.56A7.249,7.249,0,0,0,6.3-9.88a7.06,7.06,0,0,0-.56,2.81v.04a7.177,7.177,0,0,0,.55,2.81A6.887,6.887,0,0,0,7.83-1.94,7.4,7.4,0,0,0,10.18-.4a7.631,7.631,0,0,0,2.98.57A7.709,7.709,0,0,0,16.15-.4M11.49-3.02a4.248,4.248,0,0,1-1.34-.95,4.22,4.22,0,0,1-.88-1.4,4.655,4.655,0,0,1-.31-1.7v-.04A4.579,4.579,0,0,1,9.27-8.8a4.409,4.409,0,0,1,.86-1.39,3.9,3.9,0,0,1,1.32-.94,4.18,4.18,0,0,1,1.71-.34,4.111,4.111,0,0,1,1.7.35,4.224,4.224,0,0,1,1.35.95,4.236,4.236,0,0,1,.88,1.4,4.676,4.676,0,0,1,.31,1.7v.04a4.6,4.6,0,0,1-.31,1.69,4.445,4.445,0,0,1-.86,1.39,3.894,3.894,0,0,1-1.33.94,4.2,4.2,0,0,1-1.7.34,4.088,4.088,0,0,1-1.71-.35M23.5-.07h3.08v-14H23.5Zm6.58,0h3.04v-8.9L39.9-.07h2.62v-14H39.48v8.62l-6.56-8.62H30.08Zm19.359,0h2.48V-11.79h4.44v-2.28H45v2.28h4.44Zm9.52,0h10.48v-2.2h-8.02V-6.03h7.02v-2.2h-7.02v-3.64h7.92v-2.2H58.959Zm13.4,0h9.82V-2.31h-7.36V-14.07h-2.46Zm12.38,0h9.82V-2.31H87.2V-14.07h-2.46Zm12.52,0h2.46v-14h-2.46Zm14.6.07a8.6,8.6,0,0,0,1.57-.47,8.7,8.7,0,0,0,1.36-.7,10.561,10.561,0,0,0,1.15-.84V-7.89h-5.96v2.14h3.58v2.62a5.271,5.271,0,0,1-1.51.77,5.89,5.89,0,0,1-1.87.29,4.812,4.812,0,0,1-1.95-.381,4.572,4.572,0,0,1-1.5-1.042,4.52,4.52,0,0,1-.97-1.583,5.736,5.736,0,0,1-.34-2v-.04a5.206,5.206,0,0,1,.35-1.9,5,5,0,0,1,.96-1.573,4.659,4.659,0,0,1,1.44-1.072,4.064,4.064,0,0,1,1.79-.4,6.209,6.209,0,0,1,1.21.11,5.405,5.405,0,0,1,1.01.3,5.1,5.1,0,0,1,.88.47,8.869,8.869,0,0,1,.82.62l1.56-1.857a8.942,8.942,0,0,0-1.11-.8,7.034,7.034,0,0,0-1.21-.584,7.733,7.733,0,0,0-1.39-.367,9.9,9.9,0,0,0-1.67-.129,7.191,7.191,0,0,0-2.91.58,7.111,7.111,0,0,0-2.29,1.57,7.055,7.055,0,0,0-1.49,2.31,7.379,7.379,0,0,0-.53,2.78v.04a7.647,7.647,0,0,0,.52,2.85,6.8,6.8,0,0,0,1.47,2.28,6.737,6.737,0,0,0,2.29,1.52,7.769,7.769,0,0,0,2.98.55,8.883,8.883,0,0,0,1.76-.17m7.28-.07h10.48v-2.2H121.6V-6.03h7.02v-2.2H121.6v-3.64h7.92v-2.2h-10.38Zm13.4,0h2.42v-9.96l7.72,9.96h2.06v-14h-2.42v9.68l-7.5-9.68h-2.28Zm24.09.07a6.4,6.4,0,0,0,1.49-.5,7.455,7.455,0,0,0,1.27-.78,9.019,9.019,0,0,0,1.13-1.03l-1.58-1.6a8.367,8.367,0,0,1-1.82,1.32,4.7,4.7,0,0,1-2.2.48,4.368,4.368,0,0,1-1.85-.391,4.565,4.565,0,0,1-1.47-1.062,4.755,4.755,0,0,1-.96-1.583,5.481,5.481,0,0,1-.34-1.934v-.04a5.282,5.282,0,0,1,.35-1.924,5,5,0,0,1,.96-1.573,4.489,4.489,0,0,1,1.46-1.062,4.368,4.368,0,0,1,1.85-.391,4.64,4.64,0,0,1,2.14.48,7.884,7.884,0,0,1,1.78,1.26l1.58-1.819a9.478,9.478,0,0,0-1.06-.872,6.779,6.779,0,0,0-1.22-.684,7.07,7.07,0,0,0-1.45-.446,8.894,8.894,0,0,0-1.75-.159,7.289,7.289,0,0,0-2.92.57,7.007,7.007,0,0,0-2.28,1.56,7.085,7.085,0,0,0-1.49,2.3,7.426,7.426,0,0,0-.53,2.81v.04a7.375,7.375,0,0,0,.54,2.82,7.057,7.057,0,0,0,1.49,2.29A6.957,6.957,0,0,0,152-.39a7.108,7.108,0,0,0,2.84.56,8.756,8.756,0,0,0,1.79-.17m6.47-.07h10.48v-2.2h-8.02V-6.03h7.02v-2.2h-7.02v-3.64h7.92v-2.2H163.1Z" fill="#fff"/>
      </g>
    </g>
    <g id="Group_6474" data-name="Group 6474" transform="translate(61 33.326)" clip-path="url(#clip-path-2)">
      <g id="Group_6473" data-name="Group 6473" transform="translate(0 0)">
        <path id="Path_5737" data-name="Path 5737" d="M-6.7-2.737A20.7,20.7,0,0,0-25.6-19.646c-1.035-.079-2.648-.035-3.167-.012A21.061,21.061,0,0,0-40.862-14.8a4.427,4.427,0,0,1,2.3,2.063,17.937,17.937,0,0,1,9.8-3.887V-5.639A6.353,6.353,0,0,0-33.729.5a6.352,6.352,0,0,0,4.916,6.122V8.775a7.78,7.78,0,0,0,1.614.182,7.748,7.748,0,0,0,1.572-.171V6.6A6.348,6.348,0,0,0-20.763.5,6.346,6.346,0,0,0-25.6-5.6V-16.612A17.64,17.64,0,0,1-9.774-2.412a3.589,3.589,0,0,0-1.8,3.09A3.665,3.665,0,0,0-7.87,4.3,3.664,3.664,0,0,0-4.165.678,3.615,3.615,0,0,0-6.7-2.737M-23.47.5a3.732,3.732,0,0,1-3.774,3.687A3.735,3.735,0,0,1-31.022.5a3.735,3.735,0,0,1,3.778-3.688A3.732,3.732,0,0,1-23.47.5m15.6,2.289A2.135,2.135,0,0,1-10.029.678,2.135,2.135,0,0,1-7.87-1.43,2.134,2.134,0,0,1-5.712.678,2.134,2.134,0,0,1-7.87,2.786m-2.4,3.054A17.671,17.671,0,0,1-23.825,17.724v3.081A20.76,20.76,0,0,0-7.235,6.484a4.558,4.558,0,0,1-.635.045,4.5,4.5,0,0,1-2.4-.689M-45.07.69a16.941,16.941,0,0,1,1.285-6.427c.062,0,.119.017.181.017A3.664,3.664,0,0,0-39.9-9.339,3.664,3.664,0,0,0-43.6-12.957a3.663,3.663,0,0,0-3.707,3.619,3.533,3.533,0,0,0,.779,2.2A19.856,19.856,0,0,0-48.164.69a20.542,20.542,0,0,0,17.44,20.1V17.724A17.485,17.485,0,0,1-45.07.69m-.694-10.029A2.135,2.135,0,0,1-43.6-11.447a2.134,2.134,0,0,1,2.158,2.109A2.134,2.134,0,0,1-43.6-7.231a2.135,2.135,0,0,1-2.159-2.108m31.456,5.976a13.26,13.26,0,0,0-9.424-8.593v3.023a10.273,10.273,0,0,1,6.916,6.444Zm-.567,8.072L-15,4.646l-2.322-.926a10.272,10.272,0,0,1-9.821,7.073A10.186,10.186,0,0,1-37.442.732a10.063,10.063,0,0,1,6.7-9.407v-3.3A13.11,13.11,0,0,0-40.945.69a13.172,13.172,0,0,0,12.1,12.987v7.38c.4.022.851.034,1.26.034.653,0,1.905-.089,1.905-.089v-7.4a13.252,13.252,0,0,0,10.807-8.9" transform="translate(48.164 19.692)" fill="#fff"/>
      </g>
    </g>
    <path id="Path_7403" data-name="Path 7403" d="M2.478,14H1.3V4.228H5.194A2.731,2.731,0,0,1,7.2,4.942,2.77,2.77,0,0,1,7.924,7a2.965,2.965,0,0,1-.5,1.771,2.383,2.383,0,0,1-1.463.917L8.2,14H6.874L4.76,9.8H2.478ZM5.194,8.792a1.518,1.518,0,0,0,1.085-.364,1.357,1.357,0,0,0,.385-1.036V6.664a1.357,1.357,0,0,0-.385-1.036,1.518,1.518,0,0,0-1.085-.364H2.478V8.792Zm7.672,5.376a3.241,3.241,0,0,1-1.337-.266,2.883,2.883,0,0,1-1.022-.763,3.5,3.5,0,0,1-.658-1.19,4.922,4.922,0,0,1-.231-1.561,4.939,4.939,0,0,1,.231-1.554,3.491,3.491,0,0,1,.658-1.2,2.883,2.883,0,0,1,1.022-.763,3.241,3.241,0,0,1,1.337-.266,3.062,3.062,0,0,1,1.3.266,2.884,2.884,0,0,1,.98.735,3.278,3.278,0,0,1,.623,1.113,4.405,4.405,0,0,1,.217,1.414v.532H10.794V11a2.471,2.471,0,0,0,.147.861,2.044,2.044,0,0,0,.42.693,1.919,1.919,0,0,0,.672.462,2.307,2.307,0,0,0,.9.168,2.2,2.2,0,0,0,1.2-.322,2.112,2.112,0,0,0,.791-.924l.8.574a2.777,2.777,0,0,1-1.092,1.2A3.308,3.308,0,0,1,12.866,14.168Zm0-6.622a2.123,2.123,0,0,0-.84.161,1.886,1.886,0,0,0-.651.455,2.137,2.137,0,0,0-.427.693,2.411,2.411,0,0,0-.154.875v.1h3.99V9.674a2.22,2.22,0,0,0-.525-1.547A1.786,1.786,0,0,0,12.866,7.546Zm7.35,6.622a3.379,3.379,0,0,1-1.687-.385,3.838,3.838,0,0,1-1.169-1.029l.8-.644a3.141,3.141,0,0,0,.938.819,2.444,2.444,0,0,0,1.2.287,1.783,1.783,0,0,0,1.113-.308,1.119,1.119,0,0,0,.126-1.589,1.666,1.666,0,0,0-.987-.413l-.574-.084a4.79,4.79,0,0,1-.924-.217,2.568,2.568,0,0,1-.735-.392,1.686,1.686,0,0,1-.49-.609,1.986,1.986,0,0,1-.175-.868,2.088,2.088,0,0,1,.2-.931,1.876,1.876,0,0,1,.539-.665,2.353,2.353,0,0,1,.819-.4,3.784,3.784,0,0,1,1.022-.133,3.19,3.19,0,0,1,1.477.308,3.311,3.311,0,0,1,1.043.854l-.742.672a2.227,2.227,0,0,0-.7-.609,2.254,2.254,0,0,0-1.162-.273,1.6,1.6,0,0,0-1.057.3,1.015,1.015,0,0,0-.357.819.857.857,0,0,0,.357.77,2.667,2.667,0,0,0,1.029.35l.56.084a3,3,0,0,1,1.708.693,1.822,1.822,0,0,1,.5,1.337,2.046,2.046,0,0,1-.714,1.652A2.947,2.947,0,0,1,20.216,14.168Zm7.574,0a3.241,3.241,0,0,1-1.337-.266,2.883,2.883,0,0,1-1.022-.763,3.5,3.5,0,0,1-.658-1.19,4.922,4.922,0,0,1-.231-1.561,4.939,4.939,0,0,1,.231-1.554,3.491,3.491,0,0,1,.658-1.2,2.883,2.883,0,0,1,1.022-.763,3.241,3.241,0,0,1,1.337-.266,3.062,3.062,0,0,1,1.3.266,2.884,2.884,0,0,1,.98.735,3.278,3.278,0,0,1,.623,1.113,4.405,4.405,0,0,1,.217,1.414v.532H25.718V11a2.471,2.471,0,0,0,.147.861,2.044,2.044,0,0,0,.42.693,1.919,1.919,0,0,0,.672.462,2.307,2.307,0,0,0,.9.168,2.2,2.2,0,0,0,1.2-.322,2.112,2.112,0,0,0,.791-.924l.8.574a2.777,2.777,0,0,1-1.092,1.2A3.308,3.308,0,0,1,27.79,14.168Zm0-6.622a2.123,2.123,0,0,0-.84.161,1.886,1.886,0,0,0-.651.455,2.137,2.137,0,0,0-.427.693,2.411,2.411,0,0,0-.154.875v.1h3.99V9.674a2.22,2.22,0,0,0-.525-1.547A1.786,1.786,0,0,0,27.79,7.546ZM38.22,14a1.1,1.1,0,0,1-.9-.336,1.665,1.665,0,0,1-.343-.84H36.9a1.869,1.869,0,0,1-.784,1.008,2.436,2.436,0,0,1-1.3.336,2.533,2.533,0,0,1-1.785-.588,2.066,2.066,0,0,1-.637-1.6,1.822,1.822,0,0,1,.749-1.568,3.984,3.984,0,0,1,2.331-.546H36.9V9.156a1.561,1.561,0,0,0-.42-1.176A1.792,1.792,0,0,0,35.2,7.574a1.939,1.939,0,0,0-1.1.294,2.422,2.422,0,0,0-.735.784l-.672-.63a2.552,2.552,0,0,1,.938-1,3.492,3.492,0,0,1,3.668.231,2.268,2.268,0,0,1,.728,1.792V13.02h.826V14ZM35,13.216a2.85,2.85,0,0,0,.77-.1,1.888,1.888,0,0,0,.6-.28,1.388,1.388,0,0,0,.392-.42,1,1,0,0,0,.14-.518V10.71H35.42a2.708,2.708,0,0,0-1.407.28.9.9,0,0,0-.441.812V12.1a.979.979,0,0,0,.385.826A1.678,1.678,0,0,0,35,13.216ZM40.656,14V6.776h1.12v1.33h.07a2.181,2.181,0,0,1,.7-.924,2.15,2.15,0,0,1,1.386-.406h.434V7.9h-.658a2.529,2.529,0,0,0-1.421.343,1.012,1.012,0,0,0-.511.861V14Zm7.966.168a3.326,3.326,0,0,1-1.358-.266,2.774,2.774,0,0,1-1.015-.756,3.369,3.369,0,0,1-.63-1.19,5.285,5.285,0,0,1-.217-1.568,5.285,5.285,0,0,1,.217-1.568,3.369,3.369,0,0,1,.63-1.19,2.774,2.774,0,0,1,1.015-.756,3.326,3.326,0,0,1,1.358-.266,2.9,2.9,0,0,1,1.729.469A2.86,2.86,0,0,1,51.324,8.3l-.938.476a1.7,1.7,0,0,0-.644-.868,1.932,1.932,0,0,0-1.12-.308,2.237,2.237,0,0,0-.882.161,1.722,1.722,0,0,0-.63.448,1.885,1.885,0,0,0-.378.686,2.894,2.894,0,0,0-.126.875V11a2.346,2.346,0,0,0,.511,1.561,1.853,1.853,0,0,0,1.505.609,2.032,2.032,0,0,0,1.96-1.26l.812.546a2.869,2.869,0,0,1-1.043,1.246A3.051,3.051,0,0,1,48.622,14.168ZM53.186,3.64h1.12V7.952h.056a2.376,2.376,0,0,1,.749-.98,2.1,2.1,0,0,1,1.295-.364,2.266,2.266,0,0,1,1.771.721,2.934,2.934,0,0,1,.651,2.037V14h-1.12V9.562q0-1.946-1.638-1.946a2.516,2.516,0,0,0-.651.084,1.893,1.893,0,0,0-.567.252,1.247,1.247,0,0,0-.4.427,1.213,1.213,0,0,0-.147.609V14h-1.12Zm8.876,10.528a.748.748,0,0,1-.854-.812v-.182a.855.855,0,1,1,1.708,0v.182a.748.748,0,0,1-.854.812ZM68.992,14V4.228h5.964V5.264H70.168V8.54h4.508V9.576H70.168v3.388h4.788V14Zm12.74-1.176h-.056a2.2,2.2,0,0,1-2.114,1.344,2.744,2.744,0,0,1-1.218-.266,2.646,2.646,0,0,1-.931-.756,3.465,3.465,0,0,1-.588-1.19,5.624,5.624,0,0,1-.2-1.568,5.625,5.625,0,0,1,.2-1.568,3.465,3.465,0,0,1,.588-1.19,2.646,2.646,0,0,1,.931-.756,2.744,2.744,0,0,1,1.218-.266,2.439,2.439,0,0,1,1.295.329,2.047,2.047,0,0,1,.819,1.015h.056V3.64h1.12V14h-1.12Zm-1.862.336a2.612,2.612,0,0,0,.721-.1,1.809,1.809,0,0,0,.6-.287,1.4,1.4,0,0,0,.4-.462,1.293,1.293,0,0,0,.147-.623V9a1.1,1.1,0,0,0-.147-.553,1.381,1.381,0,0,0-.4-.441,2.015,2.015,0,0,0-.6-.287,2.45,2.45,0,0,0-.721-.1,1.932,1.932,0,0,0-1.5.6,2.218,2.218,0,0,0-.546,1.561V11a2.218,2.218,0,0,0,.546,1.561A1.932,1.932,0,0,0,79.87,13.16Zm10.024-.336h-.056a3.476,3.476,0,0,1-.273.5,1.806,1.806,0,0,1-.973.735,2.482,2.482,0,0,1-.784.112,2.288,2.288,0,0,1-1.778-.721,2.914,2.914,0,0,1-.658-2.037V6.776h1.12v4.438q0,1.946,1.652,1.946a2.516,2.516,0,0,0,.651-.084,1.8,1.8,0,0,0,.56-.252,1.273,1.273,0,0,0,.392-.427,1.243,1.243,0,0,0,.147-.623v-5h1.12V14h-1.12Zm6.4,1.344a3.326,3.326,0,0,1-1.358-.266,2.774,2.774,0,0,1-1.015-.756,3.369,3.369,0,0,1-.63-1.19,5.284,5.284,0,0,1-.217-1.568,5.284,5.284,0,0,1,.217-1.568,3.369,3.369,0,0,1,.63-1.19,2.774,2.774,0,0,1,1.015-.756,3.326,3.326,0,0,1,1.358-.266,2.9,2.9,0,0,1,1.729.469A2.86,2.86,0,0,1,98.994,8.3l-.938.476a1.7,1.7,0,0,0-.644-.868,1.932,1.932,0,0,0-1.12-.308,2.237,2.237,0,0,0-.882.161,1.722,1.722,0,0,0-.63.448A1.885,1.885,0,0,0,94.4,8.9a2.894,2.894,0,0,0-.126.875V11a2.346,2.346,0,0,0,.511,1.561,1.853,1.853,0,0,0,1.5.609,2.032,2.032,0,0,0,1.96-1.26l.812.546a2.869,2.869,0,0,1-1.043,1.246A3.051,3.051,0,0,1,96.292,14.168ZM106.106,14a1.1,1.1,0,0,1-.9-.336,1.666,1.666,0,0,1-.343-.84h-.07a1.869,1.869,0,0,1-.784,1.008,2.436,2.436,0,0,1-1.3.336,2.533,2.533,0,0,1-1.785-.588,2.066,2.066,0,0,1-.637-1.6,1.822,1.822,0,0,1,.749-1.568,3.984,3.984,0,0,1,2.331-.546h1.428V9.156a1.561,1.561,0,0,0-.42-1.176,1.792,1.792,0,0,0-1.288-.406,1.939,1.939,0,0,0-1.1.294,2.422,2.422,0,0,0-.735.784l-.672-.63a2.552,2.552,0,0,1,.938-1,3.492,3.492,0,0,1,3.668.231,2.268,2.268,0,0,1,.728,1.792V13.02h.826V14Zm-3.22-.784a2.85,2.85,0,0,0,.77-.1,1.888,1.888,0,0,0,.6-.28,1.388,1.388,0,0,0,.392-.42,1,1,0,0,0,.14-.518V10.71h-1.484a2.708,2.708,0,0,0-1.407.28.9.9,0,0,0-.441.812V12.1a.979.979,0,0,0,.385.826A1.678,1.678,0,0,0,102.886,13.216Zm7.252.784a1.145,1.145,0,0,1-.889-.329,1.226,1.226,0,0,1-.3-.861V7.756h-1.19v-.98h.672a.658.658,0,0,0,.5-.147.763.763,0,0,0,.133-.511V4.774h1.008v2h1.582v.98h-1.582V13.02h1.47V14Zm4.088-8.918a.685.685,0,0,1-.525-.175.646.646,0,0,1-.161-.455V4.27a.646.646,0,0,1,.161-.455.875.875,0,0,1,1.05,0,.646.646,0,0,1,.161.455v.182a.646.646,0,0,1-.161.455A.685.685,0,0,1,114.226,5.082Zm-.56,1.694h1.12V14h-1.12Zm6.44,7.392a3.255,3.255,0,0,1-1.33-.266,2.868,2.868,0,0,1-1.029-.763,3.6,3.6,0,0,1-.665-1.19,4.788,4.788,0,0,1-.238-1.561,4.805,4.805,0,0,1,.238-1.554,3.584,3.584,0,0,1,.665-1.2,2.868,2.868,0,0,1,1.029-.763,3.255,3.255,0,0,1,1.33-.266,3.206,3.206,0,0,1,1.323.266,2.951,2.951,0,0,1,1.029.763,3.517,3.517,0,0,1,.672,1.2,4.805,4.805,0,0,1,.238,1.554,4.788,4.788,0,0,1-.238,1.561,3.528,3.528,0,0,1-.672,1.19,2.951,2.951,0,0,1-1.029.763A3.206,3.206,0,0,1,120.106,14.168Zm0-.994a2.036,2.036,0,0,0,1.484-.56,2.289,2.289,0,0,0,.574-1.708V9.87a2.289,2.289,0,0,0-.574-1.708,2.246,2.246,0,0,0-2.968,0,2.289,2.289,0,0,0-.574,1.708v1.036a2.289,2.289,0,0,0,.574,1.708A2.036,2.036,0,0,0,120.106,13.174Zm5.32.826V6.776h1.12V7.952h.056a2.376,2.376,0,0,1,.749-.98,2.1,2.1,0,0,1,1.295-.364,2.266,2.266,0,0,1,1.771.721,2.934,2.934,0,0,1,.651,2.037V14h-1.12V9.562q0-1.946-1.638-1.946a2.516,2.516,0,0,0-.651.084,1.893,1.893,0,0,0-.567.252,1.247,1.247,0,0,0-.4.427,1.213,1.213,0,0,0-.147.609V14Zm8.876.168a.748.748,0,0,1-.854-.812v-.182a.855.855,0,1,1,1.708,0v.182a.748.748,0,0,1-.854.812ZM140.77,14v-.98h1.372V5.208H140.77v-.98h3.92v.98h-1.372V13.02h1.372V14Zm6.16,0V6.776h1.12V7.952h.056a2.376,2.376,0,0,1,.749-.98,2.1,2.1,0,0,1,1.295-.364,2.266,2.266,0,0,1,1.771.721,2.934,2.934,0,0,1,.651,2.037V14h-1.12V9.562q0-1.946-1.638-1.946a2.516,2.516,0,0,0-.651.084,1.893,1.893,0,0,0-.567.252,1.247,1.247,0,0,0-.4.427,1.213,1.213,0,0,0-.147.609V14Zm9.646,0-2.534-7.224h1.12l1.26,3.584.784,2.464h.07l.784-2.464,1.288-3.584h1.078L157.878,14Zm8.106.168a3.241,3.241,0,0,1-1.337-.266,2.883,2.883,0,0,1-1.022-.763,3.5,3.5,0,0,1-.658-1.19,4.921,4.921,0,0,1-.231-1.561,4.939,4.939,0,0,1,.231-1.554,3.491,3.491,0,0,1,.658-1.2,2.883,2.883,0,0,1,1.022-.763,3.241,3.241,0,0,1,1.337-.266,3.062,3.062,0,0,1,1.3.266,2.884,2.884,0,0,1,.98.735,3.278,3.278,0,0,1,.623,1.113,4.405,4.405,0,0,1,.217,1.414v.532H162.61V11a2.471,2.471,0,0,0,.147.861,2.045,2.045,0,0,0,.42.693,1.919,1.919,0,0,0,.672.462,2.307,2.307,0,0,0,.9.168,2.2,2.2,0,0,0,1.2-.322,2.112,2.112,0,0,0,.791-.924l.8.574a2.777,2.777,0,0,1-1.092,1.2A3.308,3.308,0,0,1,164.682,14.168Zm0-6.622a2.123,2.123,0,0,0-.84.161,1.886,1.886,0,0,0-.651.455,2.137,2.137,0,0,0-.427.693,2.41,2.41,0,0,0-.154.875v.1h3.99V9.674a2.22,2.22,0,0,0-.525-1.547A1.786,1.786,0,0,0,164.682,7.546Zm7.35,6.622a3.379,3.379,0,0,1-1.687-.385,3.838,3.838,0,0,1-1.169-1.029l.8-.644a3.141,3.141,0,0,0,.938.819,2.444,2.444,0,0,0,1.2.287,1.783,1.783,0,0,0,1.113-.308,1.119,1.119,0,0,0,.126-1.589,1.666,1.666,0,0,0-.987-.413l-.574-.084a4.79,4.79,0,0,1-.924-.217,2.568,2.568,0,0,1-.735-.392,1.686,1.686,0,0,1-.49-.609,1.986,1.986,0,0,1-.175-.868,2.088,2.088,0,0,1,.2-.931,1.875,1.875,0,0,1,.539-.665,2.353,2.353,0,0,1,.819-.4,3.784,3.784,0,0,1,1.022-.133,3.19,3.19,0,0,1,1.477.308,3.311,3.311,0,0,1,1.043.854l-.742.672a2.226,2.226,0,0,0-.7-.609,2.254,2.254,0,0,0-1.162-.273,1.6,1.6,0,0,0-1.057.3,1.015,1.015,0,0,0-.357.819.857.857,0,0,0,.357.77,2.667,2.667,0,0,0,1.029.35l.56.084a3,3,0,0,1,1.708.693,1.822,1.822,0,0,1,.5,1.337,2.046,2.046,0,0,1-.714,1.652A2.947,2.947,0,0,1,172.032,14.168ZM178.388,14a1.145,1.145,0,0,1-.889-.329,1.226,1.226,0,0,1-.3-.861V7.756h-1.19v-.98h.672a.658.658,0,0,0,.5-.147.763.763,0,0,0,.133-.511V4.774h1.008v2H179.9v.98h-1.582V13.02h1.47V14Zm3.528,0V6.776h1.12V7.952h.056a3.774,3.774,0,0,1,.287-.525,1.765,1.765,0,0,1,.931-.714,2.261,2.261,0,0,1,.728-.105,2.613,2.613,0,0,1,1.316.343,2.07,2.07,0,0,1,.9,1.127h.028a2.163,2.163,0,0,1,2.2-1.47,2.164,2.164,0,0,1,1.729.721,3.021,3.021,0,0,1,.623,2.037V14h-1.12V9.562a2.359,2.359,0,0,0-.378-1.456,1.425,1.425,0,0,0-1.2-.49,2.36,2.36,0,0,0-.637.084,1.735,1.735,0,0,0-.539.252,1.233,1.233,0,0,0-.378.427,1.262,1.262,0,0,0-.14.609V14h-1.12V9.562a2.359,2.359,0,0,0-.378-1.456,1.392,1.392,0,0,0-1.176-.49,2.437,2.437,0,0,0-.644.084,1.725,1.725,0,0,0-.546.252,1.3,1.3,0,0,0-.385.427,1.213,1.213,0,0,0-.147.609V14Zm15.148.168a3.241,3.241,0,0,1-1.337-.266,2.883,2.883,0,0,1-1.022-.763,3.5,3.5,0,0,1-.658-1.19,4.921,4.921,0,0,1-.231-1.561,4.939,4.939,0,0,1,.231-1.554,3.491,3.491,0,0,1,.658-1.2,2.883,2.883,0,0,1,1.022-.763,3.241,3.241,0,0,1,1.337-.266,3.062,3.062,0,0,1,1.3.266,2.884,2.884,0,0,1,.98.735,3.278,3.278,0,0,1,.623,1.113,4.405,4.405,0,0,1,.217,1.414v.532h-5.194V11a2.471,2.471,0,0,0,.147.861,2.045,2.045,0,0,0,.42.693,1.919,1.919,0,0,0,.672.462,2.307,2.307,0,0,0,.9.168,2.2,2.2,0,0,0,1.2-.322,2.112,2.112,0,0,0,.791-.924l.8.574a2.777,2.777,0,0,1-1.092,1.2A3.308,3.308,0,0,1,197.064,14.168Zm0-6.622a2.123,2.123,0,0,0-.84.161,1.886,1.886,0,0,0-.651.455,2.137,2.137,0,0,0-.427.693,2.41,2.41,0,0,0-.154.875v.1h3.99V9.674a2.22,2.22,0,0,0-.525-1.547A1.786,1.786,0,0,0,197.064,7.546ZM202.244,14V6.776h1.12V7.952h.056a2.376,2.376,0,0,1,.749-.98,2.1,2.1,0,0,1,1.295-.364,2.266,2.266,0,0,1,1.771.721,2.934,2.934,0,0,1,.651,2.037V14h-1.12V9.562q0-1.946-1.638-1.946a2.516,2.516,0,0,0-.651.084,1.893,1.893,0,0,0-.567.252,1.247,1.247,0,0,0-.4.427,1.213,1.213,0,0,0-.147.609V14ZM212,14a1.145,1.145,0,0,1-.889-.329,1.226,1.226,0,0,1-.3-.861V7.756h-1.19v-.98h.672a.658.658,0,0,0,.5-.147.763.763,0,0,0,.133-.511V4.774h1.008v2h1.582v.98h-1.582V13.02h1.47V14Zm5.7.168a3.379,3.379,0,0,1-1.687-.385,3.838,3.838,0,0,1-1.169-1.029l.8-.644a3.141,3.141,0,0,0,.938.819,2.444,2.444,0,0,0,1.2.287,1.783,1.783,0,0,0,1.113-.308,1.119,1.119,0,0,0,.126-1.589,1.666,1.666,0,0,0-.987-.413l-.574-.084a4.79,4.79,0,0,1-.924-.217,2.568,2.568,0,0,1-.735-.392,1.686,1.686,0,0,1-.49-.609,1.986,1.986,0,0,1-.175-.868,2.088,2.088,0,0,1,.2-.931,1.875,1.875,0,0,1,.539-.665,2.353,2.353,0,0,1,.819-.4,3.784,3.784,0,0,1,1.022-.133,3.19,3.19,0,0,1,1.477.308,3.311,3.311,0,0,1,1.043.854l-.742.672a2.226,2.226,0,0,0-.7-.609,2.254,2.254,0,0,0-1.162-.273,1.6,1.6,0,0,0-1.057.3,1.015,1.015,0,0,0-.357.819.857.857,0,0,0,.357.77,2.667,2.667,0,0,0,1.029.35l.56.084a3,3,0,0,1,1.708.693,1.822,1.822,0,0,1,.5,1.337,2.046,2.046,0,0,1-.714,1.652A2.947,2.947,0,0,1,217.7,14.168Zm5.5,0a.748.748,0,0,1-.854-.812v-.182a.855.855,0,1,1,1.708,0v.182a.748.748,0,0,1-.854.812Z" transform="translate(113 55)" fill="#fff"/>
  </g>
</svg>
