<svg width="123" height="38" viewBox="0 0 123 38" fill="none" xmlns="http://www.w3.org/2000/svg">
<g clip-path="url(#clip0_152_2160)">
<path d="M91.6152 36.4928L101.812 25.1994L91.6152 13.9043H102.374L107.424 19.3907L112.287 13.9043H122.671L112.522 25.1527L122.81 36.4928H112.007L107.003 30.9614L102.045 36.4928H91.6152Z" fill="#FF6600"/>
<path d="M91.6154 8.84107H80.0668V13.9046H91.6154V21.5358H80.0668V28.5402H91.6154V36.4932H71.5786V0.910156H91.6154V8.84107Z" fill="#FF6600"/>
<path d="M63.1264 0.910156V15.4724H63.0333C61.1621 13.3523 58.8241 12.6155 56.1113 12.6155C50.5544 12.6155 46.3686 16.3391 44.8992 21.2622C43.2236 15.8377 38.9022 12.5139 32.4942 12.5139C27.2903 12.5139 23.181 14.8164 21.0365 18.5683V13.9051H10.28V8.84212H22.0184V0.910156H0.691406V36.4937H10.28V21.5358H19.8372C19.5522 22.6346 19.4002 23.811 19.4002 25.0524C19.4002 32.475 25.1527 37.6832 32.4942 37.6832C38.6677 37.6832 42.7361 34.8263 44.888 29.6176H36.671C35.5594 31.1823 34.7163 31.6471 32.4942 31.6471C29.9175 31.6471 27.6959 29.4311 27.6959 26.8042H44.4277C45.1533 32.6998 49.8123 37.7843 56.2059 37.7843C58.9639 37.7843 61.489 36.447 63.0333 34.1891H63.1264V36.4926H71.5789V0.910156H63.1264ZM27.9628 21.6421C28.496 19.3821 30.2742 17.9049 32.4942 17.9049C34.938 17.9049 36.6258 19.3365 37.0697 21.6421C37.2568 21.6421 27.9628 21.6421 27.9628 21.6421ZM57.9969 31.0754C54.8812 31.0754 52.9451 28.2138 52.9451 25.2259C52.9451 22.032 54.6292 18.9608 57.9969 18.9608C61.489 18.9608 62.8802 22.032 62.8802 25.2259C62.8797 28.2546 61.4056 31.0754 57.9969 31.0754Z" fill="#652C8F"/>
</g>
<defs>
<clipPath id="clip0_152_2160">
<rect width="122.269" height="36.6808" fill="white" transform="translate(0.691406 0.910156)"/>
</clipPath>
</defs>
</svg>
