<svg width="128" height="52" viewBox="0 0 128 52" fill="none" xmlns="http://www.w3.org/2000/svg">
<path fill-rule="evenodd" clip-rule="evenodd" d="M45.4476 6.11942H5.55893V46.1289H45.4476V6.11942ZM2.07422 2.62415V49.6241H48.9323V2.62415H2.07422Z" fill="white"/>
<path d="M58.5931 33.7888V17.7038H61.9836V30.9849H68.8586V33.7888H58.5931ZM74.4519 34.0165C73.6846 34.0165 73.0007 33.883 72.4004 33.616C71.8001 33.3437 71.325 32.9432 70.9753 32.4143C70.6307 31.8803 70.4585 31.2153 70.4585 30.4194C70.4585 29.7492 70.5812 29.1863 70.8265 28.7308C71.0719 28.2753 71.4059 27.9088 71.8288 27.6313C72.2516 27.3537 72.7319 27.1443 73.2695 27.0029C73.8124 26.8616 74.3814 26.7621 74.9765 26.7045C75.6761 26.6312 76.2398 26.5631 76.6679 26.5003C77.0959 26.4322 77.4065 26.3327 77.5997 26.2018C77.7928 26.0709 77.8894 25.8772 77.8894 25.6206V25.5735C77.8894 25.0761 77.7328 24.6912 77.4196 24.419C77.1116 24.1467 76.6731 24.0106 76.1041 24.0106C75.5038 24.0106 75.0261 24.1441 74.6712 24.4111C74.3162 24.6729 74.0813 25.0028 73.9664 25.4007L70.8813 25.1494C71.0379 24.4164 71.3459 23.7828 71.8053 23.2487C72.2647 22.7094 72.8572 22.2958 73.5828 22.0078C74.3136 21.7146 75.1593 21.568 76.1198 21.568C76.7879 21.568 77.4274 21.6465 78.0382 21.8036C78.6542 21.9607 79.1997 22.2041 79.6747 22.534C80.155 22.8639 80.5334 23.288 80.8101 23.8064C81.0868 24.3195 81.2251 24.9347 81.2251 25.652V33.7888H78.0617V32.1159H77.9677C77.7746 32.4929 77.5162 32.8254 77.1925 33.1133C76.8689 33.3961 76.48 33.6186 76.0258 33.7809C75.5716 33.938 75.047 34.0165 74.4519 34.0165ZM75.4072 31.7075C75.8979 31.7075 76.3312 31.6106 76.707 31.4169C77.0829 31.2179 77.3778 30.9509 77.5919 30.6158C77.8059 30.2807 77.9129 29.9011 77.9129 29.4769V28.1967C77.8085 28.2648 77.6649 28.3276 77.4822 28.3852C77.3047 28.4376 77.1038 28.4873 76.8793 28.5345C76.6548 28.5764 76.4304 28.6156 76.2059 28.6523C75.9814 28.6837 75.7778 28.7125 75.5951 28.7387C75.2036 28.7963 74.8617 28.8879 74.5694 29.0136C74.277 29.1392 74.05 29.3094 73.8881 29.5241C73.7263 29.7335 73.6454 29.9953 73.6454 30.3095C73.6454 30.765 73.8098 31.1132 74.1387 31.354C74.4728 31.5897 74.8956 31.7075 75.4072 31.7075ZM83.8566 33.7888V17.7038H87.1923V23.7514H87.2941C87.4403 23.4268 87.6517 23.0969 87.9283 22.7618C88.2102 22.4214 88.5756 22.1387 89.0246 21.9135C89.4787 21.6832 90.0425 21.568 90.7159 21.568C91.5929 21.568 92.402 21.7984 93.1433 22.2591C93.8846 22.7147 94.4771 23.4032 94.9208 24.3247C95.3645 25.241 95.5863 26.3903 95.5863 27.7726C95.5863 29.1183 95.3697 30.2545 94.9364 31.1813C94.5084 32.1028 93.9237 32.8018 93.1825 33.2783C92.4464 33.7495 91.6216 33.9851 90.7081 33.9851C90.0608 33.9851 89.5101 33.8778 89.0559 33.6631C88.607 33.4484 88.2389 33.1788 87.9518 32.8542C87.6647 32.5243 87.4455 32.1918 87.2941 31.8567H87.1453V33.7888H83.8566ZM87.1218 27.7569C87.1218 28.4742 87.221 29.1 87.4194 29.634C87.6177 30.1681 87.9049 30.5844 88.2807 30.8828C88.6566 31.176 89.1133 31.3226 89.651 31.3226C90.1939 31.3226 90.6533 31.1734 91.0291 30.875C91.405 30.5713 91.6895 30.1524 91.8826 29.6183C92.081 29.079 92.1802 28.4585 92.1802 27.7569C92.1802 27.0605 92.0836 26.4479 91.8905 25.9191C91.6973 25.3902 91.4128 24.9766 91.037 24.6782C90.6611 24.3797 90.1991 24.2305 89.651 24.2305C89.1081 24.2305 88.6487 24.3745 88.2729 24.6624C87.9022 24.9504 87.6177 25.3588 87.4194 25.8877C87.221 26.4165 87.1218 27.0396 87.1218 27.7569ZM107.8 25.1651L104.746 25.3536C104.694 25.0918 104.582 24.8562 104.41 24.6467C104.237 24.4321 104.01 24.2619 103.728 24.1362C103.452 24.0053 103.12 23.9399 102.734 23.9399C102.217 23.9399 101.781 24.0498 101.426 24.2697C101.071 24.4844 100.894 24.7724 100.894 25.1337C100.894 25.4217 101.009 25.6651 101.238 25.8641C101.468 26.0631 101.862 26.2228 102.421 26.3432L104.598 26.783C105.767 27.0239 106.639 27.4113 107.213 27.9454C107.787 28.4795 108.074 29.1811 108.074 30.0503C108.074 30.8409 107.842 31.5347 107.377 32.1316C106.918 32.7285 106.286 33.1945 105.482 33.5296C104.684 33.8595 103.762 34.0244 102.718 34.0244C101.126 34.0244 99.8577 33.6919 98.9128 33.0269C97.9732 32.3567 97.4224 31.4457 97.2606 30.2938L100.541 30.121C100.641 30.6079 100.881 30.9797 101.262 31.2362C101.643 31.4876 102.131 31.6132 102.726 31.6132C103.311 31.6132 103.781 31.5007 104.136 31.2755C104.496 31.0451 104.678 30.7493 104.684 30.388C104.678 30.0843 104.551 29.8356 104.3 29.6419C104.049 29.4429 103.663 29.2911 103.141 29.1863L101.058 28.7701C99.8838 28.5345 99.0094 28.1261 98.4352 27.5449C97.8661 26.9637 97.5816 26.2228 97.5816 25.3222C97.5816 24.5473 97.7905 23.8797 98.2081 23.3194C98.6309 22.7592 99.2234 22.3272 99.9855 22.0235C100.753 21.7198 101.651 21.568 102.679 21.568C104.198 21.568 105.394 21.89 106.265 22.534C107.142 23.178 107.654 24.0551 107.8 25.1651Z" fill="white"/>
<path d="M13.4908 33.7888V17.7038H24.1086V20.5077H16.8813V24.3404H23.4039V27.1443H16.8813V33.7888H13.4908ZM35.0696 22.3298C35.0069 21.6963 34.7381 21.2041 34.263 20.8533C33.788 20.5024 33.1433 20.327 32.329 20.327C31.7756 20.327 31.3084 20.4056 30.9273 20.5627C30.5463 20.7145 30.2539 20.9266 30.0504 21.1988C29.852 21.4711 29.7528 21.78 29.7528 22.1256C29.7424 22.4136 29.8024 22.6649 29.9329 22.8796C30.0686 23.0943 30.2539 23.2801 30.4889 23.4372C30.7238 23.5891 30.9952 23.7226 31.3032 23.8378C31.6112 23.9477 31.9401 24.042 32.2898 24.1205L33.7306 24.4661C34.4301 24.6232 35.0722 24.8326 35.6568 25.0944C36.2415 25.3562 36.7478 25.6782 37.1759 26.0605C37.604 26.4427 37.9354 26.893 38.1703 27.4113C38.4105 27.9297 38.5332 28.524 38.5384 29.1942C38.5332 30.1786 38.2826 31.032 37.7867 31.7546C37.296 32.4719 36.586 33.0296 35.6568 33.4275C34.7329 33.8202 33.6184 34.0165 32.3133 34.0165C31.0187 34.0165 29.8911 33.8176 28.9306 33.4196C27.9753 33.0217 27.2288 32.4327 26.6912 31.6525C26.1587 30.8671 25.8794 29.8958 25.8533 28.7387H29.1342C29.1708 29.278 29.3248 29.7283 29.5962 30.0896C29.8729 30.4456 30.2409 30.7153 30.7003 30.8985C31.1649 31.0765 31.6895 31.1656 32.2742 31.1656C32.8484 31.1656 33.3469 31.0818 33.7697 30.9142C34.1978 30.7467 34.5293 30.5137 34.7642 30.2152C34.9991 29.9168 35.1165 29.5738 35.1165 29.1863C35.1165 28.8251 35.0095 28.5214 34.7955 28.2753C34.5867 28.0292 34.2787 27.8197 33.8715 27.647C33.4696 27.4742 32.9763 27.3171 32.3916 27.1757L30.6455 26.7359C29.2934 26.406 28.2259 25.8903 27.4429 25.1887C26.6598 24.487 26.2709 23.5419 26.2762 22.3534C26.2709 21.3795 26.5293 20.5286 27.0514 19.8008C27.5786 19.073 28.3016 18.5049 29.2203 18.0965C30.1391 17.6881 31.1831 17.4839 32.3525 17.4839C33.5427 17.4839 34.5815 17.6881 35.4689 18.0965C36.3616 18.5049 37.0558 19.073 37.5518 19.8008C38.0477 20.5286 38.3035 21.3716 38.3191 22.3298H35.0696Z" fill="white"/>
</svg>
