<svg width="479" height="133" viewBox="0 0 479 133" fill="none" xmlns="http://www.w3.org/2000/svg">
<path d="M149.795 55.0109C152.651 30.3412 134.968 8.02729 110.298 5.17132C85.6282 2.31535 63.3143 19.9988 60.4583 44.6685C57.6023 69.3382 75.2858 91.6521 99.9555 94.5081C124.625 97.3641 146.939 79.6806 149.795 55.0109Z" fill="#E98C02" fill-opacity="0.44"/>
<path d="M149.795 55.0109C152.651 30.3412 134.968 8.02729 110.298 5.17132C85.6282 2.31535 63.3143 19.9988 60.4583 44.6685C57.6023 69.3382 75.2858 91.6521 99.9555 94.5081C124.625 97.3641 146.939 79.6806 149.795 55.0109Z" fill="#FFC916" fill-opacity="0.17"/>
<path d="M190.797 78.1904L189.129 80.741C188.251 82.083 186.656 82.7711 185.078 82.4891L180.684 81.7043C155.593 77.2223 130.339 71.8812 104.863 72.6651L104.31 72.6824C82.5195 73.3695 61.0139 77.4857 40.8948 85.883C39.4823 86.4726 38.1576 87.0343 36.9457 87.5542C31.8798 89.7274 26.9488 92.3562 23.1733 96.3726C19.3928 100.394 16.0686 105.069 13.9092 108.344C12.3404 110.724 9.33899 111.886 6.83795 110.518C5.15609 109.599 3.46371 108.407 2.68662 107.05C2.0499 105.939 1.94081 104.338 2.00685 102.942C2.09691 101.037 3.32089 99.4399 4.91799 98.3986C7.15853 96.9378 10.3945 94.6938 12.501 92.6457C13.5077 91.6669 14.5725 90.4255 15.571 89.1656C18.5093 85.4579 19.1412 80.5416 18.6154 75.84C18.2417 72.4982 18.1279 68.6274 18.9608 65.6418C20.5827 59.828 22.3509 55.6049 26.1786 50.9363C36.7204 38.0786 47.8911 35.2308 64.0473 31.2689C74.2977 28.7552 79.578 27.9599 89.8274 27.1483C101.926 26.1903 109.056 26.0839 121.146 27.1483C135.778 28.4365 144.467 28.9782 158.122 34.3892C160.468 35.3189 163.157 36.6142 165.71 37.9349C172.39 41.3889 178.485 45.9476 183.189 51.8141C186.159 55.5182 189.19 59.9552 190.61 64.052C191.37 66.2435 191.851 67.4855 192.169 69.7828C192.324 70.9083 192.339 72.3382 192.309 73.5504C192.269 75.2093 191.705 76.8017 190.797 78.1904Z" stroke="#FFC916" stroke-width="3"/>
<path d="M149.795 55.0109C152.651 30.3412 134.968 8.02729 110.298 5.17132C85.6282 2.31535 63.3143 19.9988 60.4583 44.6685C57.6023 69.3382 75.2858 91.6521 99.9555 94.5081C124.625 97.3641 146.939 79.6806 149.795 55.0109Z" fill="#E98C02" fill-opacity="0.44"/>
<path d="M149.795 55.0109C152.651 30.3412 134.968 8.02729 110.298 5.17132C85.6282 2.31535 63.3143 19.9988 60.4583 44.6685C57.6023 69.3382 75.2858 91.6521 99.9555 94.5081C124.625 97.3641 146.939 79.6806 149.795 55.0109Z" fill="#FFC916" fill-opacity="0.17"/>
<path d="M149.795 55.0109C152.651 30.3412 134.968 8.02729 110.298 5.17132C85.6282 2.31535 63.3143 19.9988 60.4583 44.6685C57.6023 69.3382 75.2858 91.6521 99.9555 94.5081C124.625 97.3641 146.939 79.6806 149.795 55.0109Z" fill="#E98C02" fill-opacity="0.44"/>
<path d="M149.795 55.0109C152.651 30.3412 134.968 8.02729 110.298 5.17132C85.6282 2.31535 63.3143 19.9988 60.4583 44.6685C57.6023 69.3382 75.2858 91.6521 99.9555 94.5081C124.625 97.3641 146.939 79.6806 149.795 55.0109Z" fill="#FFC916" fill-opacity="0.17"/>
<path d="M190.797 78.1904L189.129 80.741C188.251 82.083 186.656 82.7711 185.078 82.4891L180.684 81.7043C155.593 77.2223 130.339 71.8812 104.863 72.6651L104.31 72.6824C82.5195 73.3695 61.0139 77.4857 40.8948 85.883C39.4823 86.4726 38.1576 87.0343 36.9457 87.5542C31.8798 89.7274 26.9488 92.3562 23.1733 96.3726C19.3928 100.394 16.0686 105.069 13.9092 108.344C12.3404 110.724 9.33899 111.886 6.83795 110.518C5.15609 109.599 3.46371 108.407 2.68662 107.05C2.0499 105.939 1.94081 104.338 2.00685 102.942C2.09691 101.037 3.32089 99.4399 4.91799 98.3986C7.15853 96.9378 10.3945 94.6938 12.501 92.6457C13.5077 91.6669 14.5725 90.4255 15.571 89.1656C18.5093 85.4579 19.1412 80.5416 18.6154 75.84C18.2417 72.4982 18.1279 68.6274 18.9608 65.6418C20.5827 59.828 22.3509 55.6049 26.1786 50.9363C36.7204 38.0786 47.8911 35.2308 64.0473 31.2689C74.2977 28.7552 79.578 27.9599 89.8274 27.1483C101.926 26.1903 109.056 26.0839 121.146 27.1483C135.778 28.4365 144.467 28.9782 158.122 34.3892C160.468 35.3189 163.157 36.6142 165.71 37.9349C172.39 41.3889 178.485 45.9476 183.189 51.8141C186.159 55.5182 189.19 59.9552 190.61 64.052C191.37 66.2435 191.851 67.4855 192.169 69.7828C192.324 70.9083 192.339 72.3382 192.309 73.5504C192.269 75.2093 191.705 76.8017 190.797 78.1904Z" stroke="#FFC916" stroke-width="3"/>
<path d="M236.384 73V40.688H223.336V33.52H258.112V40.688H245.064V73H236.384ZM279.999 73.616C276.117 73.616 272.701 72.776 269.751 71.096C266.839 69.3787 264.562 67.008 262.919 63.984C261.314 60.9227 260.511 57.3387 260.511 53.232C260.511 49.1253 261.314 45.56 262.919 42.536C264.562 39.4747 266.839 37.104 269.751 35.424C272.663 33.744 276.079 32.904 279.999 32.904C283.919 32.904 287.335 33.744 290.247 35.424C293.197 37.104 295.474 39.4747 297.079 42.536C298.722 45.56 299.543 49.1067 299.543 53.176C299.543 57.2827 298.722 60.8667 297.079 63.928C295.474 66.9893 293.197 69.3787 290.247 71.096C287.335 72.776 283.919 73.616 279.999 73.616ZM279.999 66.224C283.285 66.224 285.842 65.0853 287.671 62.808C289.538 60.4933 290.471 57.3013 290.471 53.232C290.471 49.1253 289.557 45.952 287.727 43.712C285.898 41.4347 283.322 40.296 279.999 40.296C276.751 40.296 274.194 41.4347 272.327 43.712C270.498 45.952 269.583 49.1253 269.583 53.232C269.583 57.3013 270.498 60.4933 272.327 62.808C274.194 65.0853 276.751 66.224 279.999 66.224ZM307.938 73V33.52H314.378L334.09 58.664V33.52H342.154V73H335.77L316.002 47.8V73H307.938ZM347.246 73L365.39 33.52H372.39L390.534 73H381.798L378.102 64.432H359.678L356.038 73H347.246ZM368.806 42.76L362.59 57.656H375.246L368.918 42.76H368.806ZM395.626 73V33.52H402.066L421.778 58.664V33.52H429.842V73H423.458L403.69 47.8V73H395.626ZM434.934 73L453.078 33.52H460.078L478.222 73H469.486L465.79 64.432H447.366L443.726 73H434.934ZM456.494 42.76L450.278 57.656H462.934L456.606 42.76H456.494Z" fill="white"/>
</svg>
