<svg width="483" height="133" viewBox="0 0 483 133" fill="none" xmlns="http://www.w3.org/2000/svg">
<path d="M149.795 55.0109C152.651 30.3412 134.968 8.02729 110.298 5.17132C85.6282 2.31535 63.3143 19.9988 60.4583 44.6685C57.6023 69.3382 75.2858 91.6521 99.9555 94.5081C124.625 97.3641 146.939 79.6806 149.795 55.0109Z" fill="#E98C02" fill-opacity="0.44"/>
<path d="M149.795 55.0109C152.651 30.3412 134.968 8.02729 110.298 5.17132C85.6282 2.31535 63.3143 19.9988 60.4583 44.6685C57.6023 69.3382 75.2858 91.6521 99.9555 94.5081C124.625 97.3641 146.939 79.6806 149.795 55.0109Z" fill="#FFC916" fill-opacity="0.17"/>
<path d="M190.797 78.1904L189.129 80.741C188.251 82.083 186.656 82.7711 185.078 82.4891L180.684 81.7043C155.593 77.2223 130.339 71.8812 104.863 72.6651L104.31 72.6824C82.5195 73.3695 61.0139 77.4857 40.8948 85.883C39.4823 86.4726 38.1576 87.0343 36.9457 87.5542C31.8798 89.7274 26.9488 92.3562 23.1733 96.3726C19.3928 100.394 16.0686 105.069 13.9092 108.344C12.3404 110.724 9.33899 111.886 6.83795 110.518C5.15609 109.599 3.46371 108.407 2.68662 107.05C2.0499 105.939 1.94081 104.338 2.00685 102.942C2.09691 101.037 3.32089 99.4399 4.91799 98.3986C7.15853 96.9378 10.3945 94.6938 12.501 92.6457C13.5077 91.6669 14.5725 90.4255 15.571 89.1656C18.5093 85.4579 19.1412 80.5416 18.6154 75.84C18.2417 72.4982 18.1279 68.6274 18.9608 65.6418C20.5827 59.828 22.3509 55.6049 26.1786 50.9363C36.7204 38.0786 47.8911 35.2308 64.0473 31.2689C74.2977 28.7552 79.578 27.9599 89.8274 27.1483C101.926 26.1903 109.056 26.0839 121.146 27.1483C135.778 28.4365 144.467 28.9782 158.122 34.3892C160.468 35.3189 163.157 36.6142 165.71 37.9349C172.39 41.3889 178.485 45.9476 183.189 51.8141C186.159 55.5182 189.19 59.9552 190.61 64.052C191.37 66.2435 191.851 67.4855 192.169 69.7828C192.324 70.9083 192.339 72.3382 192.309 73.5504C192.269 75.2093 191.705 76.8017 190.797 78.1904Z" stroke="#FFC916" stroke-width="3"/>
<path d="M149.795 55.0109C152.651 30.3412 134.968 8.02729 110.298 5.17132C85.6282 2.31535 63.3143 19.9988 60.4583 44.6685C57.6023 69.3382 75.2858 91.6521 99.9555 94.5081C124.625 97.3641 146.939 79.6806 149.795 55.0109Z" fill="#E98C02" fill-opacity="0.44"/>
<path d="M149.795 55.0109C152.651 30.3412 134.968 8.02729 110.298 5.17132C85.6282 2.31535 63.3143 19.9988 60.4583 44.6685C57.6023 69.3382 75.2858 91.6521 99.9555 94.5081C124.625 97.3641 146.939 79.6806 149.795 55.0109Z" fill="#FFC916" fill-opacity="0.17"/>
<path d="M190.797 78.1904L189.129 80.741C188.251 82.083 186.656 82.7711 185.078 82.4891L180.684 81.7043C155.593 77.2223 130.339 71.8812 104.863 72.6651L104.31 72.6824C82.5195 73.3695 61.0139 77.4857 40.8948 85.883C39.4823 86.4726 38.1576 87.0343 36.9457 87.5542C31.8798 89.7274 26.9488 92.3562 23.1733 96.3726C19.3928 100.394 16.0686 105.069 13.9092 108.344C12.3404 110.724 9.33899 111.886 6.83795 110.518C5.15609 109.599 3.46371 108.407 2.68662 107.05C2.0499 105.939 1.94081 104.338 2.00685 102.942C2.09691 101.037 3.32089 99.4399 4.91799 98.3986C7.15853 96.9378 10.3945 94.6938 12.501 92.6457C13.5077 91.6669 14.5725 90.4255 15.571 89.1656C18.5093 85.4579 19.1412 80.5416 18.6154 75.84C18.2417 72.4982 18.1279 68.6274 18.9608 65.6418C20.5827 59.828 22.3509 55.6049 26.1786 50.9363C36.7204 38.0786 47.8911 35.2308 64.0473 31.2689C74.2977 28.7552 79.578 27.9599 89.8274 27.1483C101.926 26.1903 109.056 26.0839 121.146 27.1483C135.778 28.4365 144.467 28.9782 158.122 34.3892C160.468 35.3189 163.157 36.6142 165.71 37.9349C172.39 41.3889 178.485 45.9476 183.189 51.8141C186.159 55.5182 189.19 59.9552 190.61 64.052C191.37 66.2435 191.851 67.4855 192.169 69.7828C192.324 70.9083 192.339 72.3382 192.309 73.5504C192.269 75.2093 191.705 76.8017 190.797 78.1904Z" stroke="#FFC916" stroke-width="3"/>
<path d="M240.384 73V40.688H227.336V33.52H262.112V40.688H249.064V73H240.384ZM283.999 73.616C280.117 73.616 276.701 72.776 273.751 71.096C270.839 69.3787 268.562 67.008 266.919 63.984C265.314 60.9227 264.511 57.3387 264.511 53.232C264.511 49.1253 265.314 45.56 266.919 42.536C268.562 39.4747 270.839 37.104 273.751 35.424C276.663 33.744 280.079 32.904 283.999 32.904C287.919 32.904 291.335 33.744 294.247 35.424C297.197 37.104 299.474 39.4747 301.079 42.536C302.722 45.56 303.543 49.1067 303.543 53.176C303.543 57.2827 302.722 60.8667 301.079 63.928C299.474 66.9893 297.197 69.3787 294.247 71.096C291.335 72.776 287.919 73.616 283.999 73.616ZM283.999 66.224C287.285 66.224 289.842 65.0853 291.671 62.808C293.538 60.4933 294.471 57.3013 294.471 53.232C294.471 49.1253 293.557 45.952 291.727 43.712C289.898 41.4347 287.322 40.296 283.999 40.296C280.751 40.296 278.194 41.4347 276.327 43.712C274.498 45.952 273.583 49.1253 273.583 53.232C273.583 57.3013 274.498 60.4933 276.327 62.808C278.194 65.0853 280.751 66.224 283.999 66.224ZM311.938 73V33.52H318.378L338.09 58.664V33.52H346.154V73H339.77L320.002 47.8V73H311.938ZM351.246 73L369.39 33.52H376.39L394.534 73H385.798L382.102 64.432H363.678L360.038 73H351.246ZM372.806 42.76L366.59 57.656H379.246L372.918 42.76H372.806ZM399.626 73V33.52H406.066L425.778 58.664V33.52H433.842V73H427.458L407.69 47.8V73H399.626ZM438.934 73L457.078 33.52H464.078L482.222 73H473.486L469.79 64.432H451.366L447.726 73H438.934ZM460.494 42.76L454.278 57.656H466.934L460.606 42.76H460.494Z" fill="black"/>
</svg>
