<svg width="180" height="48" viewBox="0 0 180 48" fill="none" xmlns="http://www.w3.org/2000/svg">
<path d="M26.018 10c0 7.742-6.276 14.018-14.018 14.018C12 16.276 18.276 10 26.018 10zM12 24.018c7.742 0 14.018 6.276 14.018 14.018C18.276 38.036 12 31.76 12 24.018zm14.018 14.018c0-7.742 6.276-14.018 14.018-14.018 0 7.742-6.276 14.018-14.018 14.018zm12.85-26.868c0 6.452-5.23 11.682-11.682 11.682 0-6.452 5.23-11.682 11.681-11.682z" fill="currentColor"></path><path fill-rule="evenodd" clip-rule="evenodd" d="M55.736 37.292c1.215.356 2.42.533 3.616.533 1.271 0 2.402-.177 3.393-.533.99-.336 1.831-.831 2.523-1.485a6.136 6.136 0 0 0 1.598-2.411c.374-.954.56-2.038.56-3.253V16.49h-4.289l-.078 1.56a4.45 4.45 0 0 0-.454-.41 6.069 6.069 0 0 0-1.178-.758 5.62 5.62 0 0 0-1.43-.504 6.233 6.233 0 0 0-1.57-.196c-1.308 0-2.486.327-3.532.98-1.047.655-1.879 1.562-2.495 2.72-.599 1.16-.898 2.486-.898 3.981 0 1.458.3 2.748.898 3.87a6.9 6.9 0 0 0 2.523 2.607c1.065.616 2.27.925 3.616.925.823 0 1.608-.15 2.355-.449.748-.299 1.374-.7 1.879-1.205l.112-.112v.785c0 .84-.15 1.542-.449 2.102-.28.561-.72.981-1.317 1.262-.598.28-1.374.42-2.327.42a7.836 7.836 0 0 1-2.383-.364 7.171 7.171 0 0 1-2.019-.953l-1.57 3.196c.748.56 1.72 1.01 2.916 1.345zm5.607-10.008c-.523.318-1.15.476-1.878.476-.692 0-1.3-.158-1.823-.476a3.31 3.31 0 0 1-1.233-1.346c-.28-.58-.42-1.261-.42-2.046 0-.785.14-1.468.42-2.047.299-.58.71-1.028 1.233-1.346.524-.336 1.131-.505 1.823-.505.728 0 1.355.169 1.878.505.542.318.953.767 1.233 1.346.3.58.45 1.27.45 2.075 0 .766-.15 1.439-.45 2.018a3.073 3.073 0 0 1-1.233 1.346zm16.51 4.373c-1.644 0-3.083-.327-4.317-.98-1.215-.655-2.159-1.552-2.832-2.692-.653-1.16-.98-2.477-.98-3.953 0-1.16.186-2.215.56-3.168a7.267 7.267 0 0 1 1.57-2.496 7.247 7.247 0 0 1 2.41-1.598c.935-.392 1.954-.588 3.057-.588 1.046 0 2 .187 2.86.56.86.374 1.607.898 2.242 1.57a6.88 6.88 0 0 1 1.458 2.383c.337.916.496 1.916.477 3l-.028 1.234H74.115c.083.308.198.597.346.869.356.617.86 1.093 1.514 1.43.673.336 1.467.504 2.383.504.617 0 1.178-.093 1.682-.28.505-.187 1.047-.505 1.626-.953l2.103 2.972a9.98 9.98 0 0 1-1.85 1.233 8.912 8.912 0 0 1-2.019.701 8.407 8.407 0 0 1-2.047.252zM74.35 21.65a3.6 3.6 0 0 0-.255.729h6.087v-.056a2.203 2.203 0 0 0-.45-1.206 2.538 2.538 0 0 0-.98-.841 2.857 2.857 0 0 0-1.346-.308c-.748 0-1.383.149-1.906.448-.505.28-.888.692-1.15 1.234z" fill="currentColor"></path><path d="M87.888 20.443v10.934h4.514V20.443h2.86V16.49h-2.86v-3.756h-4.514v3.756h-2.636v3.953h2.636z" fill="currentColor"></path>
<path fill-rule="evenodd" clip-rule="evenodd" d="M103.968 37.826c-1.197 0-2.402-.178-3.617-.533-1.196-.336-2.168-.785-2.916-1.346l1.57-3.196c.598.411 1.271.73 2.019.954.766.242 1.56.364 2.383.364.953 0 1.728-.14 2.327-.42.598-.281 1.037-.702 1.318-1.262.298-.56.448-1.262.448-2.103V29.5a3.479 3.479 0 0 1-.112.112c-.505.505-1.131.907-1.878 1.206a6.286 6.286 0 0 1-2.355.448c-1.346 0-2.552-.308-3.617-.925a6.901 6.901 0 0 1-2.523-2.607c-.599-1.122-.897-2.411-.897-3.87 0-1.494.298-2.821.897-3.98.617-1.159 1.448-2.065 2.495-2.72 1.046-.654 2.224-.98 3.533-.98.541 0 1.065.065 1.569.195.523.113 1 .28 1.43.505a6.08 6.08 0 0 1 1.178.757c.165.13.317.268.454.411l.079-1.56h4.289v13.653c0 1.215-.187 2.299-.561 3.252a6.133 6.133 0 0 1-1.598 2.411c-.692.654-1.533 1.15-2.523 1.486-.991.355-2.122.533-3.392.533zm.112-10.065c.729 0 1.355-.159 1.878-.477a3.079 3.079 0 0 0 1.234-1.345c.298-.58.448-1.253.448-2.019 0-.804-.15-1.495-.448-2.075a3.08 3.08 0 0 0-1.234-1.345c-.523-.337-1.149-.505-1.878-.505-.692 0-1.3.168-1.823.505a3.312 3.312 0 0 0-1.233 1.345c-.28.58-.421 1.262-.421 2.047 0 .785.141 1.467.421 2.047a3.31 3.31 0 0 0 1.233 1.345c.523.318 1.131.477 1.823.477zm14.072 2.916c1.233.654 2.672.98 4.317.98.691 0 1.374-.083 2.047-.252a8.921 8.921 0 0 0 2.018-.7 9.994 9.994 0 0 0 1.851-1.234l-2.103-2.972c-.58.449-1.121.767-1.626.954a4.812 4.812 0 0 1-1.682.28c-.916 0-1.71-.168-2.383-.505a3.604 3.604 0 0 1-1.514-1.43 3.97 3.97 0 0 1-.347-.869h10.215l.029-1.233c.018-1.084-.141-2.084-.477-3a6.9 6.9 0 0 0-1.458-2.383 6.773 6.773 0 0 0-2.243-1.57c-.86-.374-1.813-.56-2.859-.56-1.104 0-2.122.195-3.056.588a7.24 7.24 0 0 0-2.411 1.598 7.258 7.258 0 0 0-1.57 2.495c-.375.953-.561 2.01-.561 3.168 0 1.477.326 2.794.981 3.953.673 1.14 1.616 2.037 2.832 2.692zm.558-8.299c.063-.265.148-.508.255-.729a2.727 2.727 0 0 1 1.149-1.233c.523-.3 1.159-.449 1.907-.449.504 0 .953.103 1.345.308.411.206.738.486.982.841.261.337.41.739.448 1.206v.056h-6.086z" fill="currentColor"></path><path d="M131.241 31.377V16.49h4.29l.092 1.774a5.04 5.04 0 0 1 1.45-1.241 5.735 5.735 0 0 1 1.401-.589 4.94 4.94 0 0 1 1.458-.224c.748 0 1.411.112 1.991.336a3.715 3.715 0 0 1 1.542 1.094c.297.334.554.743.769 1.225.223-.334.481-.64.773-.917a6.384 6.384 0 0 1 1.289-.953 6.26 6.26 0 0 1 1.43-.589 5.81 5.81 0 0 1 1.458-.196c1.178 0 2.159.234 2.944.7.785.468 1.374 1.16 1.766 2.075.393.898.589 2.01.589 3.337v9.055h-4.514v-8.719c0-.878-.187-1.532-.561-1.962-.355-.449-.897-.673-1.626-.673a2.99 2.99 0 0 0-1.093.196c-.318.112-.598.29-.841.533a2.546 2.546 0 0 0-.533.785 2.49 2.49 0 0 0-.196 1.009v8.831h-4.514V22.63c0-.84-.196-1.486-.589-1.934-.373-.449-.906-.673-1.598-.673-.373 0-.729.065-1.065.196-.318.112-.598.29-.841.533a2.546 2.546 0 0 0-.533.785 2.49 2.49 0 0 0-.196 1.009v8.831h-4.542zm27.642-.392c1.121.448 2.392.672 3.813.672 1.195 0 2.252-.205 3.168-.616.934-.43 1.663-1.01 2.187-1.739a4.244 4.244 0 0 0 .813-2.55 3.9 3.9 0 0 0-.225-1.347 2.655 2.655 0 0 0-.673-1.121c-.374-.411-.879-.766-1.514-1.065-.616-.318-1.364-.599-2.242-.841a25.662 25.662 0 0 1-1.683-.505c-.411-.15-.7-.271-.869-.365a1.942 1.942 0 0 1-.448-.42 1.129 1.129 0 0 1-.14-.56c0-.169.037-.319.112-.45a.967.967 0 0 1 .308-.364c.149-.112.327-.187.533-.224a3.12 3.12 0 0 1 .757-.084c.373 0 .775.084 1.205.252.43.15.86.355 1.29.617.43.243.803.523 1.121.84l2.383-2.662a7.762 7.762 0 0 0-1.738-1.206 9.165 9.165 0 0 0-2.074-.785 9.343 9.343 0 0 0-2.327-.28 7.19 7.19 0 0 0-2.916.588c-.897.374-1.626.907-2.187 1.598-.542.692-.813 1.496-.813 2.412 0 .598.093 1.14.28 1.626.206.486.495.915.87 1.29.41.41.934.775 1.57 1.093.653.317 1.42.588 2.298.813.617.15 1.122.299 1.514.448.393.131.663.243.813.337a.914.914 0 0 1 .477.84c0 .188-.038.356-.112.505a1.22 1.22 0 0 1-.337.365c-.131.093-.29.168-.476.224a2.248 2.248 0 0 1-.645.084c-.655 0-1.346-.13-2.075-.392a5.59 5.59 0 0 1-1.962-1.29l-2.748 2.355c.673.804 1.57 1.44 2.692 1.907z" fill="currentColor">
</path></svg>