<svg width="130" height="44" viewBox="0 0 130 44" fill="none" xmlns="http://www.w3.org/2000/svg">
<path d="M55.5324 22.7986C55.5324 28.7386 50.8171 33.1157 45.0305 33.1157C39.2438 33.1157 34.5286 28.7386 34.5286 22.7986C34.5286 16.8167 39.2438 12.4814 45.0305 12.4814C50.8171 12.4814 55.5324 16.8167 55.5324 22.7986ZM50.9351 22.7986C50.9351 19.0866 48.2023 16.5469 45.0305 16.5469C41.8587 16.5469 39.1258 19.0866 39.1258 22.7986C39.1258 26.4733 41.8587 29.0503 45.0305 29.0503C48.2023 29.0503 50.9351 26.4687 50.9351 22.7986Z" fill="#EA4335"/>
<path d="M78.1881 22.7986C78.1881 28.7386 73.4729 33.1157 67.6862 33.1157C61.8996 33.1157 57.1843 28.7386 57.1843 22.7986C57.1843 16.8213 61.8996 12.4814 67.6862 12.4814C73.4729 12.4814 78.1881 16.8167 78.1881 22.7986ZM73.5909 22.7986C73.5909 19.0866 70.858 16.5469 67.6862 16.5469C64.5144 16.5469 61.7816 19.0866 61.7816 22.7986C61.7816 26.4733 64.5144 29.0503 67.6862 29.0503C70.858 29.0503 73.5909 26.4687 73.5909 22.7986Z" fill="#FBBC05"/>
<path d="M99.9001 13.1048V31.6272C99.9001 39.2465 95.3406 42.3584 89.9504 42.3584C84.8764 42.3584 81.8226 39.0139 80.671 36.2788L84.6735 34.6368C85.3862 36.316 87.1326 38.2976 89.9457 38.2976C93.396 38.2976 95.5341 36.1997 95.5341 32.2505V30.7667H95.3736C94.3447 32.018 92.3623 33.1111 89.8607 33.1111C84.6263 33.1111 79.8308 28.6177 79.8308 22.8358C79.8308 17.0121 84.6263 12.4814 89.8607 12.4814C92.3576 12.4814 94.34 13.5746 95.3736 14.7886H95.5341V13.1094H99.9001V13.1048ZM95.8598 22.8358C95.8598 19.2029 93.4007 16.5469 90.2714 16.5469C87.0996 16.5469 84.4422 19.2029 84.4422 22.8358C84.4422 26.4314 87.0996 29.0503 90.2714 29.0503C93.4007 29.0503 95.8598 26.4314 95.8598 22.8358Z" fill="#4285F4"/>
<path d="M107.098 2.24805V32.4831H102.614V2.24805H107.098Z" fill="#34A853"/>
<path d="M124.571 26.194L128.14 28.5384C126.988 30.2176 124.213 33.1108 119.417 33.1108C113.47 33.1108 109.029 28.5802 109.029 22.7937C109.029 16.6583 113.508 12.4766 118.903 12.4766C124.335 12.4766 126.993 16.7374 127.861 19.0399L128.338 20.2121L114.343 25.9242C115.415 27.9941 117.081 29.05 119.417 29.05C121.758 29.05 123.382 27.9151 124.571 26.194ZM113.588 22.482L122.943 18.6538C122.429 17.3653 120.88 16.4676 119.058 16.4676C116.722 16.4676 113.47 18.5003 113.588 22.482Z" fill="#EA4335"/>
<path d="M17.5559 20.1138V15.7367H32.5229C32.6692 16.4995 32.7447 17.4019 32.7447 18.3787C32.7447 21.6627 31.8338 25.7235 28.898 28.6168C26.0424 31.5473 22.3939 33.1102 17.5606 33.1102C8.60214 33.1102 1.06909 25.9189 1.06909 17.0903C1.06909 8.26161 8.60214 1.07031 17.5606 1.07031C22.5166 1.07031 26.0471 2.98675 28.6997 5.48463L25.5657 8.57326C23.6635 6.81498 21.0864 5.44742 17.5559 5.44742C11.014 5.44742 5.89761 10.6432 5.89761 17.0903C5.89761 23.5373 11.014 28.7331 17.5559 28.7331C21.7991 28.7331 24.2158 27.0539 25.7639 25.5282C27.0194 24.2909 27.8454 22.5233 28.1711 20.1091L17.5559 20.1138Z" fill="#4285F4"/>
</svg>
