<svg width="127" height="36" viewBox="0 0 127 36" fill="none" xmlns="http://www.w3.org/2000/svg">
<path d="M14.3283 6.54297V16.4169H5.11737V6.54297H0.744385V30.1131H5.11737V20.5598H14.3283V30.1131H18.7013V6.54297H14.3283Z" fill="white"/>
<path d="M32.6967 22.4939C32.6967 23.4385 32.3156 24.3444 31.6371 25.0124C30.9587 25.6803 30.0385 26.0556 29.079 26.0556C28.1195 26.0556 27.1993 25.6803 26.5209 25.0124C25.8424 24.3444 25.4613 23.4385 25.4613 22.4939V12.3984H21.3132V22.4939C21.3132 24.5196 22.1306 26.4624 23.5856 27.8948C25.0405 29.3272 27.0139 30.1319 29.0715 30.1319C31.1291 30.1319 33.1024 29.3272 34.5574 27.8948C36.0124 26.4624 36.8297 24.5196 36.8297 22.4939V12.3984H32.6967V22.4939Z" fill="white"/>
<path d="M63.4298 13.4385C63.4298 11.3692 64.8203 10.7132 66.3437 10.7132C67.5714 10.7132 69.1933 11.6329 70.2539 12.7487L72.9707 9.59734C71.6145 7.79172 68.8634 6.54297 66.6115 6.54297C62.1121 6.54297 58.8576 9.1375 58.8576 13.4385C58.8576 21.4183 68.7648 18.887 68.7648 23.3526C68.7648 24.73 67.4064 25.9471 65.8509 25.9471C63.3977 25.9471 62.6028 24.7658 61.4758 23.5171L58.4612 26.6031C60.3895 28.934 62.7678 30.1173 65.6174 30.1173C69.8918 30.1173 73.3307 27.4912 73.3307 23.3863C73.3307 14.5269 63.4234 17.2797 63.4234 13.4385" fill="white"/>
<path d="M124.72 26.3478C122.269 26.3478 121.573 25.3037 121.573 23.7048V16.6278H125.382V13.0419H121.573V8.31055L117.367 10.1689V24.5844C117.367 28.2715 119.951 30.1299 123.494 30.1299C124.05 30.1399 124.606 30.0961 125.153 29.9991L126.179 26.2803C125.716 26.3119 125.185 26.3436 124.72 26.3436" fill="white"/>
<path d="M48.4851 12.516C46.4304 12.516 44.997 13.1024 43.6107 14.4419V6.68359H39.4563V21.0632C39.4563 26.4463 43.4093 30.1335 47.8509 30.1335C52.7788 30.1335 57.1132 26.3809 57.1132 21.3269C57.1132 16.3361 53.1238 12.5181 48.4851 12.5181V12.516ZM48.4594 26.0181C47.5271 26.0181 46.6158 25.7459 45.8406 25.236C45.0655 24.7261 44.4613 24.0013 44.1045 23.1534C43.7478 22.3054 43.6544 21.3723 43.8363 20.4721C44.0182 19.572 44.4671 18.7451 45.1263 18.0961C45.7855 17.4471 46.6254 17.0051 47.5398 16.826C48.4542 16.647 49.4019 16.7389 50.2632 17.0901C51.1245 17.4414 51.8607 18.0362 52.3786 18.7993C52.8966 19.5624 53.173 20.4597 53.173 21.3775C53.173 22.6083 52.6764 23.7886 51.7924 24.6589C50.9085 25.5292 49.7095 26.0181 48.4594 26.0181Z" fill="white"/>
<path d="M93.5947 21.1123C93.5947 16.0498 89.2688 12.3057 84.3323 12.3057C79.8908 12.3057 75.9377 15.9928 75.9377 21.376V35.764H80.0922V27.9952C81.4763 29.3325 82.9118 29.921 84.9644 29.921C89.603 29.921 93.5925 26.1052 93.5925 21.1123H93.5947ZM89.6609 21.0617C89.6609 21.9795 89.3844 22.8767 88.8665 23.6399C88.3486 24.403 87.6124 24.9978 86.7511 25.349C85.8898 25.7003 84.942 25.7922 84.0277 25.6131C83.1133 25.4341 82.2734 24.9921 81.6142 24.3431C80.955 23.6941 80.506 22.8672 80.3242 21.967C80.1423 21.0668 80.2356 20.1337 80.5924 19.2858C80.9492 18.4378 81.5533 17.7131 82.3285 17.2031C83.1036 16.6932 84.015 16.421 84.9472 16.421C86.1974 16.421 87.3963 16.91 88.2803 17.7803C89.1643 18.6505 89.6609 19.8309 89.6609 21.0617Z" fill="white"/>
<path d="M107.016 12.1072V7.99812C107.568 7.74439 108.035 7.34164 108.363 6.83675C108.691 6.33187 108.866 5.74562 108.869 5.14625V5.05132C108.869 4.21216 108.531 3.40737 107.928 2.814C107.325 2.22062 106.508 1.88726 105.655 1.88726H105.559C104.707 1.88726 103.889 2.22062 103.286 2.814C102.684 3.40737 102.345 4.21216 102.345 5.05132V5.14625C102.348 5.74562 102.524 6.33187 102.852 6.83675C103.18 7.34164 103.647 7.74439 104.198 7.99812V12.1072C102.613 12.3459 101.12 12.9929 99.8705 13.9824L88.4249 5.20531C88.5059 4.91587 88.5491 4.61745 88.5534 4.31726C88.5547 3.61211 88.3435 2.92244 87.9466 2.33546C87.5497 1.74849 86.9849 1.29059 86.3236 1.01968C85.6623 0.748769 84.9343 0.677024 84.2316 0.813517C83.5289 0.95001 82.8831 1.28861 82.3759 1.78649C81.8687 2.28436 81.5228 2.91915 81.3821 3.61055C81.2414 4.30196 81.3121 5.01892 81.5853 5.67075C81.8585 6.32258 82.322 6.88 82.917 7.2725C83.512 7.66499 84.2119 7.87494 84.9282 7.87577C85.5545 7.87302 86.1691 7.70865 86.7108 7.39906L97.9829 16.0327C96.97 17.5388 96.4416 19.3103 96.4664 21.1164C96.4913 22.9224 97.0682 24.6792 98.1221 26.1577L94.694 29.5327C94.4168 29.4456 94.128 29.3993 93.837 29.3956C93.249 29.396 92.6743 29.568 92.1856 29.8899C91.6969 30.2118 91.316 30.6691 91.0912 31.204C90.8664 31.7389 90.8077 32.3274 90.9225 32.8951C91.0373 33.4629 91.3205 33.9843 91.7363 34.3937C92.1521 34.803 92.6818 35.0818 93.2584 35.1949C93.8351 35.3079 94.4329 35.2501 94.9762 35.0288C95.5195 34.8074 95.984 34.4325 96.3109 33.9513C96.6379 33.4702 96.8126 32.9044 96.813 32.3255C96.8093 32.039 96.7624 31.7547 96.6738 31.4818L100.065 28.1426C101.171 28.9805 102.457 29.5581 103.825 29.8311C105.193 30.1041 106.606 30.0653 107.956 29.7177C109.306 29.3701 110.557 28.7229 111.614 27.8257C112.671 26.9284 113.505 25.805 114.053 24.5413C114.601 23.2777 114.847 21.9074 114.774 20.5354C114.701 19.1634 114.31 17.8261 113.631 16.6259C112.951 15.4258 112.002 14.3946 110.856 13.6113C109.709 12.8281 108.396 12.3136 107.016 12.1072ZM105.61 25.6198C104.683 25.619 103.776 25.3474 103.005 24.8394C102.234 24.3314 101.633 23.6097 101.279 22.7657C100.924 21.9216 100.832 20.993 101.013 20.0973C101.194 19.2015 101.641 18.3788 102.298 17.7331C102.954 17.0873 103.79 16.6476 104.7 16.4695C105.61 16.2913 106.553 16.3828 107.41 16.7322C108.267 17.0816 109 17.6734 109.515 18.4327C110.031 19.192 110.307 20.0848 110.307 20.9982C110.307 22.2234 109.813 23.3984 108.933 24.2647C108.053 25.131 106.859 25.6177 105.615 25.6177" fill="#FF7A59"/>
</svg>
