<svg width="23" height="23" viewBox="0 0 23 23" fill="none" xmlns="http://www.w3.org/2000/svg">
<rect x="0.480225" y="0.849609" width="21.541" height="21.541" rx="10.7705" fill="#0057FF"/>
<rect width="12.9246" height="12.9246" transform="translate(4.78845 5.1582)" fill="#0057FF"/>
<path d="M13.405 9.4668C14.2619 9.4668 15.0838 9.80722 15.6898 10.4132C16.2957 11.0191 16.6361 11.841 16.6361 12.6979V16.4676H14.482V12.6979C14.482 12.4123 14.3686 12.1383 14.1666 11.9364C13.9646 11.7344 13.6906 11.6209 13.405 11.6209C13.1193 11.6209 12.8454 11.7344 12.6434 11.9364C12.4414 12.1383 12.3279 12.4123 12.3279 12.6979V16.4676H10.1738V12.6979C10.1738 11.841 10.5143 11.0191 11.1202 10.4132C11.7262 9.80722 12.548 9.4668 13.405 9.4668Z" fill="white"/>
<path d="M8.0197 10.0059H5.8656V16.4682H8.0197V10.0059Z" fill="white"/>
<path d="M6.94265 8.38848C7.53749 8.38848 8.0197 7.90626 8.0197 7.31143C8.0197 6.71659 7.53749 6.23438 6.94265 6.23438C6.34781 6.23438 5.8656 6.71659 5.8656 7.31143C5.8656 7.90626 6.34781 8.38848 6.94265 8.38848Z" fill="white"/>
</svg>
