<svg width="22" height="22" viewBox="0 0 22 22" fill="none" xmlns="http://www.w3.org/2000/svg">
<path d="M0.327148 19.5094C0.327148 13.6915 0.327148 7.87355 0.327148 2.05562C0.35457 1.93065 0.375136 1.80568 0.409413 1.68072C0.649352 0.764288 1.36231 0.21582 2.33578 0.21582C7.97092 0.21582 13.6061 0.21582 19.2481 0.21582C19.6868 0.21582 20.105 0.326902 20.4683 0.604608C21.0236 1.03505 21.2293 1.62518 21.2293 2.30555C21.2293 7.83189 21.2293 13.3582 21.2293 18.8915C21.2293 19.1484 21.2156 19.3983 21.195 19.6552C21.1401 20.4814 20.5163 21.1409 19.7211 21.3145C19.6182 21.3353 19.5154 21.3561 19.4057 21.377C13.6609 21.377 7.91608 21.377 2.1644 21.377C2.10955 21.3561 2.05471 21.3284 1.99301 21.3214C1.21835 21.252 0.498533 20.5716 0.381991 19.8079C0.368281 19.7038 0.340859 19.6066 0.327148 19.5094ZM11.8168 9.18571C11.8168 8.99825 11.8168 8.78303 11.8168 8.56087C11.8168 8.16514 11.5974 7.94992 11.2135 7.94992C10.4594 7.94992 9.70534 7.94992 8.94439 7.94992C8.53306 7.94992 8.32054 8.16514 8.32054 8.58864C8.32054 11.8656 8.32054 15.1355 8.32054 18.4125C8.32054 18.836 8.53992 19.0651 8.9581 19.0651C9.69162 19.0651 10.4252 19.0651 11.1655 19.0651C11.6111 19.0651 11.8237 18.8499 11.8237 18.3916C11.8237 16.7254 11.8237 15.0522 11.8237 13.386C11.8237 12.8375 11.9402 12.3238 12.1733 11.8308C12.5092 11.1227 13.1399 10.7617 13.9146 10.8381C14.6481 10.9075 15.1554 11.331 15.3405 12.1016C15.4365 12.4904 15.4913 12.9 15.4981 13.3027C15.5119 15.0106 15.505 16.7185 15.505 18.4333C15.505 18.8568 15.7107 19.0651 16.1288 19.0651C16.8898 19.0651 17.6507 19.0651 18.4185 19.0651C18.8504 19.0651 19.0835 18.8429 19.0835 18.4125C19.0767 16.3991 19.0767 14.3857 19.0424 12.3724C19.0287 11.574 18.9053 10.7825 18.6036 10.0327C18.2335 9.10239 17.6302 8.40119 16.6773 8.04711C15.9575 7.77635 15.2034 7.74164 14.4424 7.80412C13.8049 7.85966 13.1879 8.00546 12.6669 8.40813C12.3652 8.64418 12.0979 8.92883 11.8168 9.18571ZM3.32981 13.511C3.32981 15.1286 3.32981 16.7462 3.32981 18.3708C3.32981 18.8429 3.54919 19.0651 4.01535 19.0651C4.69404 19.0651 5.37958 19.0651 6.05826 19.0651C6.62726 19.0651 6.83292 18.8568 6.83292 18.2806C6.83292 16.3436 6.83292 14.4066 6.83292 12.4696C6.83292 11.1921 6.83292 9.92162 6.83292 8.64418C6.83292 8.17208 6.60669 7.94297 6.14738 7.94297C5.43442 7.94297 4.72146 7.94297 4.00164 7.94297C3.54233 7.94297 3.32981 8.15819 3.32981 8.62335C3.32981 10.2618 3.32981 11.8864 3.32981 13.511ZM7.32651 4.78407C7.32651 3.52746 6.31191 2.493 5.07109 2.493C3.84397 2.493 2.81566 3.52051 2.82251 4.77019C2.82937 6.06846 3.8234 7.03349 5.06423 7.05432C6.2982 7.08903 7.32651 6.04069 7.32651 4.78407Z" fill="white"/>
</svg>
