<svg width="285" height="68" viewBox="0 0 285 68" fill="none" xmlns="http://www.w3.org/2000/svg">
<path d="M18.8114 34.0328L6.42163 20.8611L18.8114 7.68945L31.2113 20.8611L18.8114 34.0328Z" fill="url(#paint0_linear_147_1652)"/>
<path d="M31.2113 47.1404L18.8114 60.3121L6.42163 47.1404L18.8114 33.9688L31.2113 47.1404Z" fill="url(#paint1_linear_147_1652)"/>
<path d="M52.6346 47V19.2936H63.7568C66.6329 19.2936 68.8231 19.9664 70.3271 21.3122C71.8576 22.6315 72.6228 24.3335 72.6228 26.4181C72.6228 28.1596 72.1478 29.5581 71.1979 30.6136C70.2744 31.6427 69.1397 32.342 67.794 32.7114C69.3772 33.028 70.6834 33.8197 71.7125 35.0862C72.7416 36.3264 73.2561 37.7777 73.2561 39.4401C73.2561 41.6302 72.4645 43.4377 70.8813 44.8626C69.298 46.2875 67.0551 47 64.1526 47H52.6346ZM57.7009 30.9303H63.0047C64.4296 30.9303 65.5247 30.6004 66.2899 29.9408C67.0551 29.2811 67.4377 28.3443 67.4377 27.1305C67.4377 25.9695 67.0551 25.0591 66.2899 24.3995C65.5511 23.7134 64.4296 23.3704 62.9256 23.3704H57.7009V30.9303ZM57.7009 42.8836H63.3609C64.865 42.8836 66.026 42.5406 66.844 41.8545C67.6884 41.1421 68.1106 40.1526 68.1106 38.886C68.1106 37.593 67.6752 36.5771 66.8045 35.8383C65.9337 35.0994 64.7595 34.73 63.2818 34.73H57.7009V42.8836ZM77.6044 47V19.2936H82.6707V43.0419H94.9407V47H77.6044ZM109.875 47.475C107.104 47.475 104.676 46.8681 102.592 45.6543C100.534 44.4405 98.9108 42.7649 97.7234 40.6275C96.5624 38.4638 95.9819 35.9702 95.9819 33.1468C95.9819 30.3234 96.5624 27.843 97.7234 25.7056C98.9108 23.5419 100.534 21.8531 102.592 20.6393C104.676 19.4255 107.104 18.8186 109.875 18.8186C112.619 18.8186 115.033 19.4255 117.118 20.6393C119.202 21.8531 120.825 23.5419 121.986 25.7056C123.147 27.843 123.728 30.3234 123.728 33.1468C123.728 35.9702 123.147 38.4638 121.986 40.6275C120.825 42.7649 119.202 44.4405 117.118 45.6543C115.033 46.8681 112.619 47.475 109.875 47.475ZM109.875 42.9232C112.513 42.9232 114.611 42.0524 116.168 40.3109C117.751 38.5693 118.543 36.1813 118.543 33.1468C118.543 30.1123 117.751 27.7242 116.168 25.9827C114.611 24.2411 112.513 23.3704 109.875 23.3704C107.236 23.3704 105.125 24.2411 103.542 25.9827C101.959 27.7242 101.167 30.1123 101.167 33.1468C101.167 36.1813 101.959 38.5693 103.542 40.3109C105.125 42.0524 107.236 42.9232 109.875 42.9232ZM140.748 47.475C137.951 47.475 135.55 46.8813 133.544 45.6938C131.539 44.48 129.995 42.8045 128.914 40.6671C127.832 38.5034 127.291 36.0098 127.291 33.1864C127.291 30.3629 127.832 27.8694 128.914 25.7056C129.995 23.5419 131.539 21.8531 133.544 20.6393C135.55 19.4255 137.951 18.8186 140.748 18.8186C144.073 18.8186 146.791 19.6498 148.902 21.3122C151.039 22.9482 152.372 25.257 152.899 28.2388H147.319C146.976 26.7347 146.237 25.5605 145.102 24.7161C143.994 23.8453 142.516 23.41 140.669 23.41C138.109 23.41 136.104 24.2807 134.653 26.0223C133.201 27.7638 132.476 30.1519 132.476 33.1864C132.476 36.2209 133.201 38.6089 134.653 40.3505C136.104 42.0656 138.109 42.9232 140.669 42.9232C142.516 42.9232 143.994 42.5274 145.102 41.7358C146.237 40.9178 146.976 39.7963 147.319 38.3714H152.899C152.372 41.2212 151.039 43.4509 148.902 45.0605C146.791 46.6702 144.073 47.475 140.748 47.475ZM157.384 47V19.2936H162.45V30.4949L172.702 19.2936H178.956L168.744 30.297L179.233 47H173.018L165.102 34.1759L162.45 37.0653V47H157.384ZM198.585 47V23.3704H190.51V19.2936H211.765V23.3704H203.651V47H198.585ZM210.799 47L220.932 19.2936H226.632L236.764 47H231.381L229.165 40.5879H218.359L216.103 47H210.799ZM219.745 36.6299H227.779L223.742 25.1119L219.745 36.6299ZM240.333 47V19.2936H245.4V43.0419H257.67V47H240.333ZM262.134 47V19.2936H267.2V30.4949L277.451 19.2936H283.705L273.493 30.297L283.982 47H277.768L269.852 34.1759L267.2 37.0653V47H262.134Z" fill="white"/>
<defs>
<linearGradient id="paint0_linear_147_1652" x1="6.42163" y1="20.8611" x2="31.2113" y2="20.8611" gradientUnits="userSpaceOnUse">
<stop stop-color="#1E9CD7"/>
<stop offset="5.32779e-09" stop-color="#17D3F3"/>
<stop offset="0.9944" stop-color="#2BC0D9"/>
</linearGradient>
<linearGradient id="paint1_linear_147_1652" x1="6.42163" y1="47.1404" x2="31.2113" y2="47.1404" gradientUnits="userSpaceOnUse">
<stop offset="5.32779e-09" stop-color="#4F68DC"/>
<stop offset="1" stop-color="#7F12CB"/>
</linearGradient>
</defs>
</svg>
