<svg width="187" height="41" viewBox="0 0 187 41" fill="none" xmlns="http://www.w3.org/2000/svg">
<g clip-path="url(#clip0_152_2164)">
<path d="M65.8184 23.2692L64.707 26.4112H64.6144C64.4292 25.7027 64.0896 24.6246 63.5339 23.3308L57.5758 8.3907H51.7412V32.2024H55.6001V17.5088C55.6001 16.5846 55.6001 15.5373 55.5692 14.2435C55.5383 13.5966 55.4766 13.1038 55.4457 12.7341H55.5383C55.7236 13.6582 55.9397 14.3359 56.094 14.7672L63.2561 32.1408H65.9727L73.0731 14.6132C73.2274 14.2127 73.3818 13.4118 73.5361 12.7341H73.6287C73.5361 14.4899 73.4744 16.061 73.4435 17.0159V32.11H77.5493V8.32909H71.9308L65.8184 23.2692ZM81.4391 15.0444H85.4523V32.11H81.4391V15.0444ZM83.4766 7.83622C82.7974 7.83622 82.2417 8.08265 81.7787 8.51391C81.3156 8.94517 81.0686 9.49965 81.0686 10.1773C81.0686 10.8242 81.3156 11.3787 81.7787 11.81C82.2417 12.2412 82.7974 12.4569 83.4766 12.4569C84.1557 12.4569 84.7423 12.2104 85.1745 11.81C85.6375 11.3787 85.8845 10.8242 85.8845 10.1773C85.8845 9.53045 85.6375 8.97598 85.1745 8.51391C84.7732 8.08265 84.1866 7.83622 83.4766 7.83622ZM99.6838 14.8904C98.9429 14.7364 98.1712 14.644 97.4303 14.644C95.6089 14.644 93.9418 15.0444 92.5526 15.8453C91.1634 16.6462 90.0521 17.7552 89.3421 19.1414C88.6012 20.5584 88.2307 22.191 88.2307 24.0701C88.2307 25.7027 88.6012 27.1505 89.3112 28.4751C90.0212 29.7689 91.0091 30.8162 92.3365 31.5247C93.6023 32.2332 95.0841 32.6029 96.7511 32.6029C98.6651 32.6029 100.301 32.2024 101.598 31.4631L101.629 31.4323V27.7358L101.474 27.859C100.888 28.2903 100.209 28.6599 99.5295 28.8755C98.8195 29.122 98.1712 29.2452 97.6155 29.2452C96.0102 29.2452 94.7445 28.7831 93.8492 27.7666C92.9231 26.7809 92.46 25.4255 92.46 23.7312C92.46 21.9754 92.9231 20.5892 93.8801 19.5727C94.8371 18.5561 96.1028 18.0324 97.6464 18.0324C98.9429 18.0324 100.27 18.4637 101.474 19.3262L101.629 19.4494V15.5373L101.598 15.5065C101.073 15.2909 100.486 15.0444 99.6838 14.8904ZM112.927 14.7672C111.94 14.7672 111.013 15.0752 110.211 15.7221C109.532 16.2766 109.069 17.0775 108.667 18.0324H108.636V15.0444H104.623V32.11H108.636V23.3924C108.636 21.9138 108.945 20.6816 109.624 19.7883C110.303 18.8642 111.168 18.4021 112.217 18.4021C112.588 18.4021 112.958 18.4945 113.421 18.5561C113.854 18.6793 114.162 18.8025 114.378 18.9566L114.533 19.0798V15.0752L114.44 15.0444C114.162 14.8596 113.607 14.7672 112.927 14.7672ZM123.856 14.6748C121.047 14.6748 118.793 15.5065 117.219 17.1391C115.613 18.7717 114.841 21.0205 114.841 23.8544C114.841 26.5036 115.644 28.6599 117.188 30.2309C118.731 31.7712 120.83 32.5721 123.454 32.5721C126.202 32.5721 128.394 31.7403 129.968 30.0769C131.574 28.4135 132.345 26.1956 132.345 23.454C132.345 20.7432 131.604 18.5869 130.092 17.0159C128.641 15.4449 126.511 14.6748 123.856 14.6748ZM127.066 27.7974C126.326 28.7523 125.152 29.2144 123.701 29.2144C122.251 29.2144 121.077 28.7523 120.244 27.7358C119.41 26.7809 119.009 25.3947 119.009 23.6388C119.009 21.8214 119.441 20.4352 120.244 19.4494C121.077 18.4637 122.22 17.9708 123.671 17.9708C125.091 17.9708 126.202 18.4329 127.005 19.3878C127.807 20.3428 128.239 21.729 128.239 23.5464C128.178 25.3947 127.838 26.8425 127.066 27.7974ZM141.298 22.1294C140.032 21.6057 139.23 21.2053 138.859 20.8664C138.55 20.5584 138.396 20.1271 138.396 19.5727C138.396 19.1106 138.581 18.6485 139.044 18.3405C139.507 18.0324 140.032 17.8784 140.804 17.8784C141.483 17.8784 142.193 18.0016 142.872 18.1865C143.551 18.3713 144.169 18.6485 144.663 19.0182L144.817 19.1414V15.3833L144.725 15.3525C144.262 15.1676 143.644 14.9828 142.903 14.8288C142.162 14.7056 141.483 14.644 140.927 14.644C139.013 14.644 137.439 15.106 136.204 16.1226C134.969 17.0775 134.383 18.3713 134.383 19.8807C134.383 20.6816 134.506 21.3901 134.784 21.9754C135.062 22.5607 135.463 23.1151 136.019 23.5772C136.575 24.0085 137.377 24.5013 138.489 24.9634C139.415 25.3639 140.125 25.6719 140.557 25.9183C140.989 26.1648 141.267 26.442 141.483 26.6576C141.637 26.9041 141.73 27.2121 141.73 27.6126C141.73 28.7523 140.866 29.3068 139.106 29.3068C138.427 29.3068 137.717 29.1836 136.883 28.9064C136.05 28.6291 135.278 28.2287 134.63 27.7666L134.475 27.6434V31.5555L134.568 31.5863C135.155 31.8636 135.865 32.0484 136.729 32.264C137.593 32.418 138.365 32.5413 139.044 32.5413C141.113 32.5413 142.811 32.0792 144.015 31.0627C145.249 30.0769 145.898 28.8139 145.898 27.1813C145.898 26.0416 145.589 25.025 144.91 24.2549C144.015 23.5156 142.903 22.7455 141.298 22.1294ZM156.486 14.6748C153.677 14.6748 151.424 15.5065 149.849 17.1391C148.275 18.7717 147.472 21.0205 147.472 23.8544C147.472 26.5036 148.275 28.6599 149.818 30.2309C151.362 31.7712 153.461 32.5721 156.085 32.5721C158.833 32.5721 161.024 31.7403 162.599 30.0769C164.204 28.4135 164.976 26.1956 164.976 23.454C164.976 20.7432 164.235 18.5869 162.722 17.0159C161.271 15.4449 159.141 14.6748 156.486 14.6748ZM159.666 27.7974C158.925 28.7523 157.752 29.2144 156.301 29.2144C154.819 29.2144 153.677 28.7523 152.844 27.7358C152.01 26.7809 151.609 25.3947 151.609 23.6388C151.609 21.8214 152.041 20.4352 152.844 19.4494C153.677 18.4637 154.819 17.9708 156.27 17.9708C157.66 17.9708 158.802 18.4329 159.604 19.3878C160.407 20.3428 160.839 21.729 160.839 23.5464C160.839 25.3947 160.438 26.8425 159.666 27.7974ZM186.431 18.3405V15.0444H182.387V9.99252L182.264 10.0233L178.436 11.1631L178.343 11.1939V15.0444H172.292V12.8881C172.292 11.9024 172.539 11.1323 172.972 10.6394C173.404 10.1465 174.052 9.9001 174.855 9.9001C175.41 9.9001 175.997 10.0233 176.645 10.3006L176.8 10.393V6.91209L176.707 6.88129C176.151 6.69646 175.41 6.57324 174.453 6.57324C173.249 6.57324 172.2 6.85048 171.243 7.31255C170.286 7.83622 169.576 8.54472 169.051 9.49965C168.526 10.4238 168.248 11.4711 168.248 12.6725V15.0444H165.439V18.3097H168.248V32.11H172.292V18.3405H178.343V27.1197C178.343 30.7238 180.041 32.5413 183.437 32.5413C183.992 32.5413 184.579 32.4488 185.135 32.3564C185.721 32.2332 186.153 32.0792 186.4 31.956L186.431 31.9252V28.6291L186.277 28.7523C186.03 28.9064 185.814 29.0296 185.443 29.122C185.135 29.2144 184.857 29.2452 184.641 29.2452C183.838 29.2452 183.282 29.0604 182.881 28.5983C182.511 28.167 182.325 27.4585 182.325 26.4112V18.3405H186.431Z" fill="white"/>
<path d="M0.00146484 0.381836H18.9254V19.2649H0.00146484V0.381836Z" fill="#F25022"/>
<path d="M20.9009 0.381836H39.8248V19.2649H20.9009V0.381836Z" fill="#7FBA00"/>
<path d="M0.00146484 21.2354H18.9254V40.1184H0.00146484V21.2354Z" fill="#00A4EF"/>
<path d="M20.9009 21.2354H39.8248V40.1184H20.9009V21.2354Z" fill="#FFB900"/>
</g>
<defs>
<clipPath id="clip0_152_2164">
<rect width="186.461" height="39.7375" fill="white" transform="translate(0.00146484 0.381836)"/>
</clipPath>
</defs>
</svg>
