<svg width="40" height="40" viewBox="0 0 40 40" fill="none" xmlns="http://www.w3.org/2000/svg">
<path fill-rule="evenodd" clip-rule="evenodd" d="M7.4254 0L10.0157 7.48213L18.6134 7.48212L18.6135 0.232563L20.9458 0.232573L20.9458 1.01807H20.9652V7.48212L38.7943 7.4821V7.53825H39.9582V9.71457L39.9969 9.73999L39.9582 9.79889V9.87064H39.911L24.9573 32.6361L23.0078 31.3556L27.6067 24.3543L20.9652 20.8557V38.9641H20.9457L20.9457 39.5816L18.7657 39.5816L18.6717 39.6142L18.6604 39.5816H18.6133V39.4455L10.2174 15.1941L0.111707 9.87064H0.0260417V9.82552L0 9.8118L0.0260417 9.76236V7.53825H0.664063L0.664062 7.48214L7.54751 7.48214L5.22135 0.763045L7.4254 0ZM18.6134 19.6168L18.6133 32.3162L13.2361 16.7843L18.6134 19.6168ZM18.6134 9.87064L18.6134 16.9806L12.1199 13.56L10.8426 9.87064H18.6134ZM37.1205 9.87064H20.9652V18.2195L28.8932 22.3958L37.1205 9.87064ZM8.37442 9.87064H5.11616L9.10116 11.9698L8.37442 9.87064Z" fill="white"/>
</svg>
