<svg xmlns="http://www.w3.org/2000/svg" width="169" height="34" viewBox="0 0 169 34" fill="none"> <path d="M1 7.60207L29 7.60204" stroke="url(#paint0_linear_677_29092)" stroke-width="1.8885"/> <path d="M1 7.60207L29 7.60204" stroke="white" stroke-width="1.8885"/> <path d="M15.0469 29.8648V2" stroke="url(#paint1_linear_677_29092)" stroke-width="1.8885"/> <path d="M15.0469 29.8648V2" stroke="white" stroke-width="1.8885"/> <path d="M21.8767 18.7433L1.66797 8.0979" stroke="url(#paint2_linear_677_29092)" stroke-width="1.8885" stroke-linecap="square"/> <path d="M21.8767 18.7433L1.66797 8.0979" stroke="white" stroke-width="1.8885" stroke-linecap="square"/> <path d="M5.43359 2.34106L14.7502 29.252" stroke="url(#paint3_linear_677_29092)" stroke-width="1.8885" stroke-linecap="square"/> <path d="M5.43359 2.34106L14.7502 29.252" stroke="white" stroke-width="1.8885" stroke-linecap="square"/> <path d="M18.5938 24.0313L28.6974 8.64966" stroke="url(#paint4_linear_677_29092)" stroke-width="1.8885" stroke-linecap="square"/> <path d="M18.5938 24.0313L28.6974 8.64966" stroke="white" stroke-width="1.8885" stroke-linecap="square"/> <path d="M1.39063 7.64404H29.0011" stroke="url(#paint5_linear_677_29092)" stroke-width="1.8885" stroke-linecap="square"/> <path d="M1.39063 7.64404H29.0011" stroke="white" stroke-width="1.8885" stroke-linecap="square"/> <path d="M15.0366 2.27966L15.0364 29.462" stroke="url(#paint6_linear_677_29092)" stroke-width="1.8885" stroke-linecap="square"/> <path d="M15.0366 2.27966L15.0364 29.462" stroke="white" stroke-width="1.8885" stroke-linecap="square"/> <path d="M47.8001 22.842H50.1561V10.853H55.3051V8.59204H42.6321V10.853H47.8001V22.842ZM62.8153 23.051C66.9003 23.051 70.1683 19.764 70.1683 15.717C70.1683 11.67 66.9003 8.40204 62.8153 8.40204C58.7493 8.40204 55.4623 11.67 55.4623 15.717C55.4623 19.764 58.7493 23.051 62.8153 23.051ZM62.8153 20.79C60.0413 20.79 57.8373 18.548 57.8373 15.717C57.8373 12.905 60.0603 10.663 62.8153 10.663C65.5703 10.663 67.7933 12.924 67.7933 15.717C67.7933 18.529 65.5893 20.79 62.8153 20.79ZM74.8463 12.088L82.0663 22.842H84.8403V8.59204H82.4843V19.365L75.2263 8.59204H72.4903V22.842H74.8463V12.088ZM97.5064 23.051C100.603 23.051 102.712 21.265 102.712 18.719C102.712 16.762 101.477 15.394 99.1974 14.843L96.6134 14.216C95.5874 13.969 95.0554 13.418 95.0554 12.563C95.0554 11.385 96.0434 10.606 97.5444 10.606C99.0834 10.606 100.109 11.442 100.394 12.848L102.56 12.05C102.066 9.77004 100.242 8.38304 97.6394 8.38304C94.7514 8.38304 92.7184 10.131 92.7184 12.563C92.7184 14.463 93.9534 15.888 96.0244 16.382L98.6084 17.009C99.8244 17.313 100.375 17.845 100.375 18.757C100.375 20.011 99.2734 20.828 97.5444 20.828C95.6824 20.828 94.4094 19.84 94.0674 18.244L91.8824 19.061C92.4144 21.455 94.5804 23.051 97.5064 23.051ZM109.069 23.051C111.843 23.051 114.104 20.79 114.104 18.035C114.104 15.318 111.824 13.057 109.069 13.057C106.314 13.057 104.053 15.299 104.053 18.035C104.053 20.79 106.314 23.051 109.069 23.051ZM109.069 20.904C107.53 20.904 106.295 19.612 106.295 18.035C106.295 16.477 107.549 15.204 109.069 15.204C110.589 15.204 111.862 16.496 111.862 18.054C111.862 19.612 110.589 20.904 109.069 20.904ZM120.253 23.051C122.305 23.051 124.091 21.778 124.813 19.935L122.818 18.985C122.438 20.125 121.45 20.904 120.253 20.904C118.752 20.904 117.498 19.612 117.498 18.035C117.498 16.496 118.733 15.204 120.253 15.204C121.431 15.204 122.438 15.964 122.818 17.085L124.813 16.135C124.072 14.311 122.305 13.057 120.253 13.057C117.517 13.057 115.256 15.299 115.256 18.035C115.256 20.79 117.517 23.051 120.253 23.051ZM128.659 11.043V8.02204H126.417V11.043H128.659ZM128.659 13.266H126.417V22.842H128.659V13.266ZM140.076 17.959C140.076 15.261 137.986 13.057 135.288 13.057C132.552 13.057 130.443 15.223 130.443 18.054C130.443 20.904 132.609 23.032 135.516 23.032C137.207 23.032 138.632 22.31 139.525 21.056L137.872 19.669C137.34 20.505 136.485 20.98 135.44 20.98C134.034 20.98 133.046 20.163 132.761 18.871H139.981C140.038 18.567 140.076 18.225 140.076 17.959ZM135.269 15.147C136.485 15.147 137.416 15.869 137.777 17.009H132.818C133.16 15.869 134.053 15.147 135.269 15.147ZM148.367 20.277C147.873 20.714 147.36 20.904 146.79 20.904C145.821 20.904 145.27 20.334 145.27 19.308V15.394H148.747V13.266H145.27V10.34H143.028V13.266H140.71V15.394H143.028V19.555C143.028 21.626 144.472 23.051 146.581 23.051C147.626 23.051 148.614 22.69 149.336 22.044L148.367 20.277ZM159.794 13.266H157.362L154.645 18.833L151.89 13.266H149.42L153.448 21.284L150.598 27.117H153.03L159.794 13.266Z" fill="white"/> <defs> <linearGradient id="paint0_linear_677_29092" x1="24.3107" y1="7.60207" x2="24.3107" y2="7.60195" gradientUnits="userSpaceOnUse"> <stop offset="0.170743" stop-color="#FF927A"/> <stop offset="0.488588" stop-color="#7AFFD7"/> <stop offset="0.713207" stop-color="#55D7E0"/> <stop offset="0.920633" stop-color="#67EDFF"/> </linearGradient> <linearGradient id="paint1_linear_677_29092" x1="15.8794" y1="26.9685" x2="14.4662" y2="26.9544" gradientUnits="userSpaceOnUse"> <stop offset="0.170743" stop-color="#FF927A"/> <stop offset="0.488588" stop-color="#7AFFD7"/> <stop offset="0.713207" stop-color="#55D7E0"/> <stop offset="0.920633" stop-color="#67EDFF"/> </linearGradient> <linearGradient id="paint2_linear_677_29092" x1="18.4922" y1="17.6369" x2="-3.87599" y2="5.86711" gradientUnits="userSpaceOnUse"> <stop offset="0.170743" stop-color="#FF927A"/> <stop offset="0.488588" stop-color="#7AFFD7"/> <stop offset="0.713207" stop-color="#55D7E0"/> <stop offset="0.920633" stop-color="#67EDFF"/> </linearGradient> <linearGradient id="paint3_linear_677_29092" x1="13.1899" y1="26.4549" x2="0.142773" y2="25.2029" gradientUnits="userSpaceOnUse"> <stop offset="0.170743" stop-color="#FF927A"/> <stop offset="0.488588" stop-color="#7AFFD7"/> <stop offset="0.713207" stop-color="#55D7E0"/> <stop offset="0.920633" stop-color="#67EDFF"/> </linearGradient> <linearGradient id="paint4_linear_677_29092" x1="27.0053" y1="22.4326" x2="13.1838" y2="19.9161" gradientUnits="userSpaceOnUse"> <stop offset="0.170743" stop-color="#FF927A"/> <stop offset="0.488588" stop-color="#7AFFD7"/> <stop offset="0.713207" stop-color="#55D7E0"/> <stop offset="0.920633" stop-color="#67EDFF"/> </linearGradient> <linearGradient id="paint5_linear_677_29092" x1="24.377" y1="8.5401" x2="23.7219" y2="3.52679" gradientUnits="userSpaceOnUse"> <stop offset="0.170743" stop-color="#FF927A"/> <stop offset="0.488588" stop-color="#7AFFD7"/> <stop offset="0.713207" stop-color="#55D7E0"/> <stop offset="0.920633" stop-color="#67EDFF"/> </linearGradient> <linearGradient id="paint6_linear_677_29092" x1="14.9948" y1="24.9095" x2="15.2864" y2="24.9079" gradientUnits="userSpaceOnUse"> <stop offset="0.170743" stop-color="#FF927A"/> <stop offset="0.488588" stop-color="#7AFFD7"/> <stop offset="0.713207" stop-color="#55D7E0"/> <stop offset="0.920633" stop-color="#67EDFF"/> </linearGradient> </defs> </svg>