<svg width="2887" height="2068" viewBox="0 0 2887 2068" fill="none" xmlns="http://www.w3.org/2000/svg">
<path d="M1178.38 970.154C1162.23 833.317 1257.99 709.541 1392.26 693.694C1526.54 677.847 1648.48 775.929 1664.63 912.766C1680.78 1049.6 1585.02 1173.38 1450.75 1189.23C1316.47 1205.07 1194.52 1106.99 1178.38 970.154Z" fill="#DB8300" fill-opacity="0.65"/>
<g style="mix-blend-mode:overlay">
<path d="M896.495 1075.7L906.042 1090.22C912.705 1100.36 924.972 1105.28 936.793 1102.55L1124.05 1059.37C1219.55 1037.35 1317.3 1019.97 1414.92 1028.61C1489.45 1035.21 1603.32 1063.37 1603.32 1063.37C1689.73 1084.86 1812.21 1134.4 1845.98 1148.35C1851.97 1150.82 1857.64 1153.82 1862.77 1157.78C1907.65 1192.45 1949.2 1258.34 1959.62 1275.52C1961.1 1277.96 1964.03 1279.05 1966.7 1278.03C1977.57 1273.86 2004.66 1262.28 2013.15 1247.38C2019.65 1235.97 2016.77 1215.91 2015.38 1208.44C2015.03 1206.57 2013.87 1204.99 2012.24 1203.99C2003.23 1198.49 1972.41 1179.21 1954.83 1162.19C1937.97 1145.87 1918.35 1117.19 1912.57 1108.53C1911.49 1106.91 1911.16 1104.93 1911.6 1103.03C1914.6 1089.93 1925.79 1036.38 1916.21 1002.33C1906.53 967.917 1896 942.928 1873.27 915.326C1810.66 839.31 1744.46 822.59 1648.72 799.336C1587.97 784.583 1555.28 780.551 1494.56 775.879C1422.89 770.363 1382.07 769.218 1310.47 775.682C1223.83 783.504 1172.37 786.827 1091.57 819.055C1019.56 847.776 954.375 896.501 914.838 963.185C908.493 973.885 903.128 984.717 899.531 995.172C895.061 1008.16 892.228 1015.52 890.375 1029.14C889.298 1037.04 889.405 1047.49 889.722 1055.3C890.017 1062.6 892.485 1069.6 896.495 1075.7Z" stroke="#FFC916" stroke-width="20"/>
</g>
<g style="mix-blend-mode:overlay">
<path d="M896.492 1074.7L906.039 1089.22C912.702 1099.36 924.97 1104.28 936.79 1101.55L1124.05 1058.37C1219.54 1036.35 1317.3 1018.97 1414.92 1027.61C1489.45 1034.21 1603.32 1062.37 1603.32 1062.37C1689.73 1083.86 1812.21 1133.4 1845.98 1147.35C1851.97 1149.82 1857.64 1152.82 1862.77 1156.78C1907.65 1191.45 1949.2 1257.34 1959.62 1274.52C1961.09 1276.96 1964.03 1278.05 1966.69 1277.03C1977.57 1272.86 2004.65 1261.28 2013.14 1246.38C2019.64 1234.97 2016.77 1214.91 2015.38 1207.44C2015.03 1205.57 2013.87 1203.99 2012.24 1202.99C2003.22 1197.49 1972.41 1178.21 1954.82 1161.19C1937.97 1144.87 1918.35 1116.19 1912.57 1107.53C1911.49 1105.91 1911.16 1103.93 1911.59 1102.03C1914.6 1088.93 1925.79 1035.38 1916.21 1001.33C1906.53 966.917 1896 941.928 1873.26 914.326C1810.66 838.31 1744.46 821.59 1648.71 798.337C1587.97 783.583 1555.27 779.551 1494.56 774.879C1422.88 769.363 1382.07 768.218 1310.47 774.682C1223.83 782.504 1172.37 785.827 1091.56 818.056C1019.56 846.776 954.372 895.501 914.835 962.185C908.49 972.885 903.125 983.717 899.528 994.172C895.058 1007.16 892.226 1014.53 890.372 1028.14C889.295 1036.04 889.402 1046.49 889.719 1054.3C890.014 1061.6 892.482 1068.6 896.492 1074.7Z" stroke="#FFC916" stroke-width="20"/>
</g>
<g style="mix-blend-mode:overlay">
<path d="M897.493 1074.7L907.04 1089.22C913.703 1099.36 925.971 1104.28 937.791 1101.55L1125.05 1058.37C1220.55 1036.35 1318.3 1018.97 1415.92 1027.61C1490.45 1034.21 1604.32 1062.37 1604.32 1062.37C1690.73 1083.86 1813.21 1133.4 1846.98 1147.35C1852.97 1149.82 1858.64 1152.82 1863.77 1156.78C1908.65 1191.45 1950.2 1257.34 1960.62 1274.52C1962.09 1276.96 1965.03 1278.05 1967.69 1277.03C1978.57 1272.86 2005.65 1261.28 2014.14 1246.38C2020.64 1234.97 2017.77 1214.91 2016.38 1207.44C2016.03 1205.57 2014.87 1203.99 2013.24 1202.99C2004.22 1197.49 1973.41 1178.21 1955.82 1161.19C1938.97 1144.87 1919.35 1116.19 1913.57 1107.53C1912.49 1105.91 1912.16 1103.93 1912.59 1102.03C1915.6 1088.93 1926.79 1035.38 1917.21 1001.33C1907.53 966.917 1897 941.928 1874.27 914.326C1811.66 838.31 1745.46 821.59 1649.71 798.337C1588.97 783.583 1556.27 779.551 1495.56 774.879C1423.89 769.363 1383.07 768.218 1311.47 774.682C1224.83 782.504 1173.37 785.827 1092.56 818.056C1020.56 846.776 955.373 895.501 915.836 962.185C909.491 972.885 904.126 983.717 900.529 994.172C896.059 1007.16 893.226 1014.53 891.373 1028.14C890.296 1036.04 890.403 1046.49 890.72 1054.3C891.015 1061.6 893.483 1068.6 897.493 1074.7Z" stroke="#FFC916" stroke-width="20"/>
</g>
</svg>
