<svg xmlns="http://www.w3.org/2000/svg" width="197" height="32" viewBox="0 0 197 32" fill="none">
<path d="M16 32C24.8366 32 32 24.8366 32 16C32 7.16344 24.8366 0 16 0C7.16344 0 0 7.16344 0 16C0 24.8366 7.16344 32 16 32Z" fill="#496AEB"/>
<path d="M24.3181 10.6272C24.0293 10.1271 23.4913 9.81641 22.9136 9.81641H10.9395L12.4945 12.5097H21.0575L16.776 19.9256L18.331 22.6189L24.3181 12.2489C24.607 11.7487 24.607 11.1274 24.3181 10.6272Z" fill="white"/>
<path d="M15.9991 21.2722L10.9401 12.5097H10.9448L9.39012 9.81641H9.08395C8.50645 9.81641 7.96829 10.1271 7.67945 10.6272C7.39062 11.1274 7.39079 11.7487 7.67945 12.2489L14.5946 24.2264C14.8833 24.7266 15.4214 25.0372 15.9989 25.0372C16.5764 25.0372 17.1146 24.7266 17.4034 24.2264L17.5556 23.9629L16.0008 21.2692L15.9991 21.2722ZM15.0709 22.8797C15.0713 22.8791 15.0718 22.8784 15.0721 22.8777C15.0718 22.8784 15.0714 22.8791 15.0709 22.8797Z" fill="white"/>
<path width="197" d="M43.942 11.704H40.27V9.418H50.35V11.704H46.678V22H43.942V11.704ZM54.321 22.27C53.277 22.27 52.359 22.084 51.567 21.712C50.787 21.328 50.181 20.794 49.749 20.11C49.329 19.414 49.119 18.604 49.119 17.68C49.119 16.78 49.329 15.982 49.749 15.286C50.181 14.59 50.787 14.05 51.567 13.666C52.359 13.282 53.277 13.09 54.321 13.09C55.353 13.09 56.259 13.282 57.039 13.666C57.831 14.05 58.437 14.59 58.857 15.286C59.289 15.982 59.505 16.78 59.505 17.68C59.505 18.604 59.289 19.414 58.857 20.11C58.437 20.794 57.837 21.328 57.057 21.712C56.277 22.084 55.365 22.27 54.321 22.27ZM54.321 20.146C55.053 20.146 55.635 19.924 56.067 19.48C56.499 19.024 56.715 18.424 56.715 17.68C56.715 16.912 56.499 16.312 56.067 15.88C55.647 15.436 55.065 15.214 54.321 15.214C53.577 15.214 52.989 15.436 52.557 15.88C52.125 16.312 51.909 16.912 51.909 17.68C51.909 18.424 52.125 19.024 52.557 19.48C53.001 19.924 53.589 20.146 54.321 20.146ZM61.0278 13.36H63.6558V14.422C64.0518 13.978 64.5198 13.648 65.0598 13.432C65.6118 13.204 66.1878 13.09 66.7878 13.09C67.9638 13.09 68.8398 13.408 69.4158 14.044C70.0038 14.668 70.2978 15.514 70.2978 16.582V22H67.5798V16.888C67.5798 15.772 67.0638 15.214 66.0318 15.214C65.5758 15.214 65.1498 15.328 64.7538 15.556C64.3578 15.772 64.0218 16.096 63.7458 16.528V22H61.0278V13.36ZM75.648 22.27C75 22.27 74.304 22.198 73.56 22.054C72.828 21.922 72.252 21.73 71.832 21.478V19.354C72.312 19.642 72.888 19.876 73.56 20.056C74.232 20.236 74.856 20.326 75.432 20.326C75.924 20.326 76.284 20.284 76.512 20.2C76.74 20.116 76.854 19.96 76.854 19.732C76.854 19.552 76.788 19.408 76.656 19.3C76.524 19.18 76.32 19.078 76.044 18.994C75.78 18.898 75.336 18.76 74.712 18.58C73.98 18.364 73.404 18.148 72.984 17.932C72.576 17.704 72.264 17.422 72.048 17.086C71.844 16.75 71.742 16.318 71.742 15.79C71.742 14.89 72.096 14.218 72.804 13.774C73.524 13.318 74.496 13.09 75.72 13.09C76.32 13.09 76.938 13.156 77.574 13.288C78.222 13.408 78.72 13.57 79.068 13.774V15.844C78.72 15.616 78.264 15.43 77.7 15.286C77.148 15.142 76.608 15.07 76.08 15.07C75.588 15.07 75.204 15.118 74.928 15.214C74.664 15.31 74.532 15.49 74.532 15.754C74.532 15.982 74.658 16.156 74.91 16.276C75.174 16.396 75.66 16.546 76.368 16.726L76.728 16.816C77.484 17.02 78.072 17.248 78.492 17.5C78.912 17.74 79.206 18.034 79.374 18.382C79.554 18.718 79.644 19.144 79.644 19.66C79.644 20.452 79.302 21.088 78.618 21.568C77.934 22.036 76.944 22.27 75.648 22.27ZM84.5267 22.27C83.5187 22.27 82.7507 21.994 82.2227 21.442C81.7067 20.878 81.4487 20.098 81.4487 19.102V15.322H80.1887V13.36H81.4487V10.768H84.1667V13.36H86.2007V15.322H84.1667V18.742C84.1667 19.246 84.2627 19.612 84.4547 19.84C84.6467 20.056 84.9887 20.164 85.4807 20.164C85.8767 20.164 86.2547 20.068 86.6147 19.876V21.91C86.0627 22.15 85.3667 22.27 84.5267 22.27ZM90.8279 22.27C89.7719 22.27 88.9079 22.006 88.2359 21.478C87.5759 20.938 87.2459 20.206 87.2459 19.282C87.2459 18.322 87.5639 17.578 88.1999 17.05C88.8359 16.51 89.7359 16.24 90.8999 16.24C91.4159 16.24 91.9079 16.294 92.3759 16.402C92.8439 16.51 93.2579 16.66 93.6179 16.852V16.636C93.6179 16.096 93.4259 15.7 93.0419 15.448C92.6579 15.196 92.0699 15.07 91.2779 15.07C90.2219 15.07 89.2499 15.268 88.3619 15.664V13.684C88.7459 13.516 89.2439 13.378 89.8559 13.27C90.4679 13.15 91.0799 13.09 91.6919 13.09C93.2519 13.09 94.4159 13.414 95.1839 14.062C95.9519 14.698 96.3359 15.592 96.3359 16.744V22H93.7799V21.208C93.0479 21.916 92.0639 22.27 90.8279 22.27ZM91.5659 20.47C92.0099 20.47 92.4119 20.386 92.7719 20.218C93.1319 20.05 93.4139 19.816 93.6179 19.516V18.652C93.0059 18.244 92.3339 18.04 91.6019 18.04C91.0979 18.04 90.7079 18.148 90.4319 18.364C90.1679 18.568 90.0359 18.874 90.0359 19.282C90.0359 19.666 90.1679 19.96 90.4319 20.164C90.6959 20.368 91.0739 20.47 91.5659 20.47ZM98.1352 13.36H100.763V14.602C101.111 14.182 101.597 13.864 102.221 13.648C102.845 13.42 103.553 13.306 104.345 13.306V15.376C103.517 15.376 102.785 15.502 102.149 15.754C101.525 16.006 101.093 16.39 100.853 16.906V22H98.1352V13.36ZM109.118 22.27C108.11 22.27 107.342 21.994 106.814 21.442C106.298 20.878 106.04 20.098 106.04 19.102V15.322H104.78V13.36H106.04V10.768H108.758V13.36H110.792V15.322H108.758V18.742C108.758 19.246 108.854 19.612 109.046 19.84C109.238 20.056 109.58 20.164 110.072 20.164C110.468 20.164 110.846 20.068 111.206 19.876V21.91C110.654 22.15 109.958 22.27 109.118 22.27ZM117.429 22.27C115.773 22.27 114.471 21.874 113.523 21.082C112.575 20.278 112.101 19.156 112.101 17.716C112.101 16.288 112.521 15.16 113.361 14.332C114.213 13.504 115.425 13.09 116.997 13.09C118.029 13.09 118.905 13.282 119.625 13.666C120.345 14.05 120.891 14.584 121.263 15.268C121.635 15.94 121.821 16.702 121.821 17.554V18.652H114.693C114.885 19.756 115.917 20.308 117.789 20.308C118.341 20.308 118.911 20.26 119.499 20.164C120.087 20.068 120.597 19.936 121.029 19.768V21.676C120.609 21.856 120.069 22 119.409 22.108C118.749 22.216 118.089 22.27 117.429 22.27ZM119.247 16.888C119.211 16.312 118.995 15.868 118.599 15.556C118.203 15.232 117.657 15.07 116.961 15.07C116.277 15.07 115.737 15.232 115.341 15.556C114.945 15.88 114.729 16.324 114.693 16.888H119.247ZM123.325 13.36H125.953V14.602C126.301 14.182 126.787 13.864 127.411 13.648C128.035 13.42 128.743 13.306 129.535 13.306V15.376C128.707 15.376 127.975 15.502 127.339 15.754C126.715 16.006 126.283 16.39 126.043 16.906V22H123.325V13.36Z" fill="white"/>
</svg>