<svg width="165" height="39" viewBox="0 0 165 39" fill="none" xmlns="http://www.w3.org/2000/svg">
<g clip-path="url(#clip0_152_2162)">
<path d="M59.0326 13.7777V15.9268H59.0989C59.8792 14.7761 61.1746 13.421 64.0459 13.421C66.2797 13.421 67.9932 14.5479 68.7276 16.2501H68.7939C69.4212 15.3895 70.1403 14.7381 70.9461 14.2769C71.8998 13.7301 72.9606 13.4163 74.2968 13.4163C77.3211 13.4163 79.9985 15.3657 79.9985 20.2821V29.6061H75.3882V20.9335C75.3882 18.442 74.4804 17.0013 72.5934 17.0013C71.2113 17.0013 70.2066 17.8667 69.8241 18.9318C69.6915 19.2979 69.6303 19.7971 69.6303 20.2155V29.6109H65.02V20.5816C65.02 18.4658 64.1479 16.9966 62.2864 16.9966C60.7972 16.9966 59.8639 18.0902 59.4814 19.0269C59.3182 19.4263 59.2672 19.8875 59.2672 20.3201V29.6061H54.6518V13.7777H59.0326ZM103.795 13.7777V16.7636H103.922C104.769 14.4814 106.778 13.421 108.543 13.421C108.987 13.421 109.231 13.4543 109.588 13.5209V17.667C109.165 17.61 108.772 17.5529 108.222 17.5529C106.222 17.5529 104.83 18.637 104.478 20.3344C104.402 20.6863 104.376 21.0666 104.376 21.5041V29.6109H99.6435V13.7777H103.795ZM116.014 8.5332V13.5161H120.013V17.5481H116.014V23.4963C116.014 25.4219 116.54 26.3539 118.1 26.3539C118.835 26.3539 119.375 26.2683 119.844 26.1589L119.906 29.5015C119.278 29.7202 117.942 29.9579 116.586 29.9579C114.989 29.9579 113.658 29.4397 112.847 28.6361C111.919 27.7185 111.491 26.216 111.491 24.0764V8.5332H116.014ZM51.4388 29.6061H46.8489V8.5332H51.4388V29.6061ZM39.1989 23.9527C39.1989 24.2428 39.1734 24.5471 39.0867 24.8086C38.7297 25.9069 37.5109 26.8341 35.9911 26.8341C34.7212 26.8341 33.7114 26.1637 33.7114 24.742C33.7114 22.5691 36.2818 21.9653 39.204 21.9795V23.9527H39.1989ZM43.7838 20.1632C43.7838 16.5734 42.1416 13.421 36.5878 13.421C33.7369 13.421 31.4725 14.1675 30.2383 14.8332L31.141 17.7146C32.2681 17.0489 34.0684 16.5021 35.7718 16.5021C38.592 16.4973 39.051 17.9903 39.051 18.946V19.1743C32.9056 19.1647 29.0245 21.1475 29.0245 25.189C29.0245 27.6567 30.9982 29.9675 34.4356 29.9675C36.5521 29.9675 38.3166 29.1829 39.3774 27.9229H39.4794C39.4794 27.9229 40.1832 30.6569 44.049 29.6109C43.845 28.4697 43.7787 27.2573 43.7787 25.7976V20.1632H43.7838ZM5.96767 8.5332C6.44196 10.7632 7.78835 17.2391 7.78835 17.2391C8.35444 19.9017 8.87464 22.6927 9.26733 24.8989H9.33873C9.72123 22.5549 10.323 20.3344 10.9656 17.5862L13.2351 8.5332H18.2585L20.3801 17.8192C20.936 20.401 21.3797 22.3932 21.7316 24.7943H21.7979C22.1804 22.3694 22.6802 20.2964 23.2259 17.6432L25.2659 8.5332H30.0853L24.1133 29.6061C20.3087 30.3811 18.8501 28.9547 18.3299 26.6915C17.8097 24.4235 16.7898 20.1109 16.7898 20.1109C16.2645 17.7478 15.8565 16.0837 15.5709 13.6588H15.4995C15.0915 16.0599 14.6631 17.7431 14.0307 20.1062L11.5266 29.6109C7.64045 30.3336 6.29406 29.2638 5.54947 26.3586C4.90688 23.8719 0.898315 8.53796 0.898315 8.53796H5.96767V8.5332ZM91.9936 23.9527C91.9936 24.2428 91.9681 24.5471 91.8814 24.8086C91.5244 25.9069 90.3055 26.8341 88.7857 26.8341C87.5159 26.8341 86.5061 26.1637 86.5061 24.742C86.5061 22.5691 89.0764 21.9653 91.9987 21.9795V23.9527H91.9936ZM96.5785 20.1632C96.5785 16.5734 94.9363 13.421 89.3824 13.421C86.5316 13.421 84.2672 14.1675 83.033 14.8332L83.9357 17.7146C85.0628 17.0489 86.8631 16.5021 88.5664 16.5021C91.3816 16.4973 91.8457 17.9903 91.8457 18.946V19.1743C85.7054 19.1647 81.8243 21.1475 81.8243 25.189C81.8243 27.6567 83.8031 29.9675 87.2354 29.9675C89.3467 29.9675 91.1164 29.1829 92.1721 27.9229H92.2792C92.2792 27.9229 92.983 30.6569 96.8488 29.6109C96.6448 28.4697 96.5785 27.2573 96.5785 25.7976V20.1632Z" fill="white"/>
<path d="M138.619 22.3482C139.071 23.1178 139.041 23.9767 138.558 24.369L130.211 30.0836C129.341 30.5751 128.04 29.9793 127.303 28.7331C126.561 27.482 126.693 26.0868 127.562 25.5953L136.804 21.395C137.384 21.1765 138.166 21.5787 138.619 22.3482ZM149.604 22.3482C150.062 21.5787 150.84 21.1815 151.419 21.39L160.666 25.5903C161.536 26.0819 161.663 27.477 160.926 28.7282C160.183 29.9744 158.877 30.5652 158.013 30.0786L149.665 24.364C149.188 23.9767 149.152 23.1128 149.604 22.3482ZM144.109 25.4464C145.019 25.4464 145.766 25.9031 145.868 26.5039L146.768 36.4238C146.768 37.4069 145.594 38.2112 144.114 38.2112C142.64 38.2112 141.461 37.4069 141.461 36.4238L142.355 26.5039C142.457 25.9031 143.204 25.4464 144.109 25.4464ZM149.665 14.1363L158.013 8.41665C158.877 7.92513 160.183 8.51595 160.926 9.76711C161.663 11.0183 161.536 12.4134 160.666 12.905L151.419 17.1102C150.84 17.3188 150.057 16.9216 149.604 16.152C149.152 15.3825 149.188 14.5235 149.665 14.1363ZM136.804 17.1102L127.562 12.905C126.698 12.4134 126.566 11.0183 127.303 9.76711C128.04 8.51595 129.346 7.92513 130.211 8.41665L138.558 14.1363C139.041 14.5186 139.071 15.3825 138.619 16.152C138.166 16.9216 137.384 17.3188 136.804 17.1102ZM142.355 11.9964L141.461 2.07644C141.461 1.09338 142.635 0.289062 144.114 0.289062C145.594 0.289062 146.768 1.09338 146.768 2.07644L145.868 11.9964C145.766 12.5922 145.019 13.0539 144.109 13.0539C143.204 13.0539 142.457 12.5922 142.355 11.9964ZM163.183 30.0439V29.7956H163.411C163.488 29.7956 163.539 29.8453 163.539 29.9198C163.539 29.9893 163.488 30.0439 163.411 30.0439H163.183ZM162.995 30.4957C162.995 30.5205 163.015 30.5453 163.045 30.5453H163.142C163.167 30.5453 163.193 30.5205 163.193 30.4957V30.2127H163.35L163.478 30.5106C163.488 30.5305 163.503 30.5453 163.523 30.5453H163.64C163.676 30.5453 163.701 30.5106 163.686 30.4758C163.64 30.3865 163.594 30.2921 163.549 30.1978C163.625 30.173 163.742 30.0985 163.742 29.9198C163.742 29.7311 163.584 29.6219 163.427 29.6219H163.045C163.02 29.6219 162.995 29.6467 162.995 29.6715V30.4957ZM162.583 30.0836C162.583 29.6814 162.918 29.3538 163.33 29.3538C163.742 29.3538 164.077 29.6765 164.077 30.0836C164.077 30.4858 163.747 30.8135 163.33 30.8135C162.913 30.8135 162.583 30.4858 162.583 30.0836ZM162.405 30.0836C162.405 30.5801 162.817 30.9872 163.33 30.9872C163.838 30.9872 164.255 30.5801 164.255 30.0836C164.255 29.5871 163.838 29.18 163.33 29.18C162.817 29.18 162.405 29.5871 162.405 30.0836Z" fill="#FFC124"/>
</g>
<defs>
<clipPath id="clip0_152_2162">
<rect width="163.357" height="37.9221" fill="white" transform="translate(0.898315 0.289062)"/>
</clipPath>
</defs>
</svg>
