<svg width="27" height="27" viewBox="0 0 27 27" fill="none" xmlns="http://www.w3.org/2000/svg">
<path d="M24.8541 7.67541C24.7276 7.16988 24.4699 6.7067 24.1071 6.33264C23.7442 5.95858 23.2891 5.6869 22.7877 5.54503C20.9556 5.09766 13.6271 5.09766 13.6271 5.09766C13.6271 5.09766 6.2986 5.09766 4.46648 5.58764C3.96504 5.72951 3.50992 6.00119 3.14708 6.37525C2.78425 6.7493 2.52655 7.21249 2.40002 7.71801C2.06471 9.57735 1.9007 11.4635 1.91003 13.3528C1.89808 15.2564 2.06211 17.1569 2.40002 19.0303C2.53951 19.5201 2.80298 19.9657 3.16497 20.3239C3.52696 20.6822 3.97524 20.941 4.46648 21.0754C6.2986 21.5654 13.6271 21.5654 13.6271 21.5654C13.6271 21.5654 20.9556 21.5654 22.7877 21.0754C23.2891 20.9336 23.7442 20.6619 24.1071 20.2878C24.4699 19.9138 24.7276 19.4506 24.8541 18.9451C25.1868 17.0997 25.3509 15.2279 25.3441 13.3528C25.3561 11.4493 25.192 9.54875 24.8541 7.67541Z" fill="#EF0000"/>
<path d="M11.2302 16.8374L17.355 13.3543L11.2302 9.87109V16.8374Z" fill="white"/>
</svg>
