<svg width="29" height="20" viewBox="0 0 29 20" fill="none" xmlns="http://www.w3.org/2000/svg">
<path d="M28.6453 5.59964V13.4106C28.6227 13.5228 28.6002 13.635 28.5889 13.7585C28.5212 14.6675 28.3972 15.5765 28.0926 16.4407C27.6866 17.5742 26.9535 18.4159 25.8369 18.9097C24.9121 19.3249 23.9309 19.482 22.9271 19.5381C21.9233 19.5942 20.9082 19.6055 19.9044 19.6055C15.7765 19.6055 11.6485 19.6167 7.53187 19.5942C6.26867 19.583 5.02803 19.4147 3.84378 18.9433C2.87383 18.5505 2.09561 17.9333 1.58808 17.0018C1.04671 16.003 0.821137 14.9144 0.79858 13.7921C0.742188 11.5252 0.742188 9.25821 0.742188 6.99124C0.742188 6.09343 0.787302 5.20685 0.854973 4.30904C0.911366 3.57957 1.09182 2.88376 1.45274 2.24407C2.0505 1.21159 3.03173 0.729021 4.12575 0.448456C5.29872 0.145445 6.50552 0.0668865 7.7236 0.0668865C12.2125 0.0556639 16.7013 0.0668867 21.1902 0.0556641C22.4872 0.0556641 23.7842 0.111777 25.0587 0.392343C25.8595 0.571904 26.6264 0.85247 27.2467 1.42482C28.0362 2.14307 28.3408 3.08577 28.4874 4.09581C28.5551 4.60082 28.6002 5.10584 28.6453 5.59964ZM11.4794 9.72956C11.4794 10.6835 11.4794 12.8607 11.4794 13.8146C13.3403 12.8494 17.2765 10.661 19.1262 9.69589C17.254 8.73075 13.3403 6.55356 11.4794 5.58841C11.4794 6.56478 11.4794 8.76441 11.4794 9.72956Z" fill="white"/>
</svg>
